<?xml version="1.0" standalone="no"?>
 <!DOCTYPE svg PUBLIC "-//W3C//DTD SVG 1.1//EN" 
 "http://www.w3.org/Graphics/SVG/1.1/DTD/svg11.dtd"> 
<svg
  xmlns:svg="http://www.w3.org/2000/svg"
  xmlns="http://www.w3.org/2000/svg"
  xmlns:xlink="http://www.w3.org/1999/xlink"
  version="1.1"
  width="297.0022mm" height="210.0072mm" viewBox="0.0000 0.0000 297.0022 210.0072">
<title>SVG Image created as MediaPad_HC-F_Silkscreen.svg date 2025/05/24 18:40:56 </title>
  <desc>Image generated by PCBNEW </desc>
<g style="fill:#000000; fill-opacity:1.0000;stroke:#000000; stroke-opacity:1.0000;
stroke-linecap:round; stroke-linejoin:round;"
 transform="translate(0 0) scale(1 1)">
</g>
<g style="fill:none; 
stroke:#000000; stroke-width:0.1000; stroke-opacity:1; 
stroke-linecap:round; stroke-linejoin:round;">
<text x="126.0000" y="70.0000"
textLength="4.5762" font-size="1.3333" lengthAdjust="spacingAndGlyphs"
text-anchor="start" opacity="0" stroke-opacity="0">An. D.</text>
<g class="stroked-text"><desc>An. D.</desc>
<path d="M126.2563 69.5867
L126.7325 69.5867
" />
<path d="M126.1610 69.8724
L126.4944 68.8724
" />
<path d="M126.4944 68.8724
L126.8277 69.8724
" />
<path d="M127.1610 69.2058
L127.1610 69.8724
" />
<path d="M127.1610 69.3010
L127.2086 69.2534
" />
<path d="M127.2086 69.2534
L127.3039 69.2058
" />
<path d="M127.3039 69.2058
L127.4467 69.2058
" />
<path d="M127.4467 69.2058
L127.5420 69.2534
" />
<path d="M127.5420 69.2534
L127.5896 69.3486
" />
<path d="M127.5896 69.3486
L127.5896 69.8724
" />
<path d="M128.0658 69.7772
L128.1134 69.8248
" />
<path d="M128.1134 69.8248
L128.0658 69.8724
" />
<path d="M128.0658 69.8724
L128.0182 69.8248
" />
<path d="M128.0182 69.8248
L128.0658 69.7772
" />
<path d="M128.0658 69.7772
L128.0658 69.8724
" />
<path d="M129.3039 69.8724
L129.3039 68.8724
" />
<path d="M129.3039 68.8724
L129.5420 68.8724
" />
<path d="M129.5420 68.8724
L129.6848 68.9200
" />
<path d="M129.6848 68.9200
L129.7801 69.0153
" />
<path d="M129.7801 69.0153
L129.8277 69.1105
" />
<path d="M129.8277 69.1105
L129.8753 69.3010
" />
<path d="M129.8753 69.3010
L129.8753 69.4438
" />
<path d="M129.8753 69.4438
L129.8277 69.6343
" />
<path d="M129.8277 69.6343
L129.7801 69.7296
" />
<path d="M129.7801 69.7296
L129.6848 69.8248
" />
<path d="M129.6848 69.8248
L129.5420 69.8724
" />
<path d="M129.5420 69.8724
L129.3039 69.8724
" />
<path d="M130.3039 69.7772
L130.3515 69.8248
" />
<path d="M130.3515 69.8248
L130.3039 69.8724
" />
<path d="M130.3039 69.8724
L130.2563 69.8248
" />
<path d="M130.2563 69.8248
L130.3039 69.7772
" />
<path d="M130.3039 69.7772
L130.3039 69.8724
" />
</g><text x="124.5000" y="72.0000"
textLength="7.6714" font-size="1.3333" lengthAdjust="spacingAndGlyphs"
text-anchor="start" opacity="0" stroke-opacity="0">its_kronos</text>
<g class="stroked-text"><desc>its_kronos</desc>
<path d="M124.8039 71.8724
L124.8039 71.2058
" />
<path d="M124.8039 70.8724
L124.7563 70.9200
" />
<path d="M124.7563 70.9200
L124.8039 70.9677
" />
<path d="M124.8039 70.9677
L124.8515 70.9200
" />
<path d="M124.8515 70.9200
L124.8039 70.8724
" />
<path d="M124.8039 70.8724
L124.8039 70.9677
" />
<path d="M125.1372 71.2058
L125.5182 71.2058
" />
<path d="M125.2801 70.8724
L125.2801 71.7296
" />
<path d="M125.2801 71.7296
L125.3277 71.8248
" />
<path d="M125.3277 71.8248
L125.4229 71.8724
" />
<path d="M125.4229 71.8724
L125.5182 71.8724
" />
<path d="M125.8039 71.8248
L125.8991 71.8724
" />
<path d="M125.8991 71.8724
L126.0896 71.8724
" />
<path d="M126.0896 71.8724
L126.1848 71.8248
" />
<path d="M126.1848 71.8248
L126.2325 71.7296
" />
<path d="M126.2325 71.7296
L126.2325 71.6819
" />
<path d="M126.2325 71.6819
L126.1848 71.5867
" />
<path d="M126.1848 71.5867
L126.0896 71.5391
" />
<path d="M126.0896 71.5391
L125.9467 71.5391
" />
<path d="M125.9467 71.5391
L125.8515 71.4915
" />
<path d="M125.8515 71.4915
L125.8039 71.3962
" />
<path d="M125.8039 71.3962
L125.8039 71.3486
" />
<path d="M125.8039 71.3486
L125.8515 71.2534
" />
<path d="M125.8515 71.2534
L125.9467 71.2058
" />
<path d="M125.9467 71.2058
L126.0896 71.2058
" />
<path d="M126.0896 71.2058
L126.1848 71.2534
" />
<path d="M126.4229 71.9677
L127.1848 71.9677
" />
<path d="M127.4229 71.8724
L127.4229 70.8724
" />
<path d="M127.5182 71.4915
L127.8039 71.8724
" />
<path d="M127.8039 71.2058
L127.4229 71.5867
" />
<path d="M128.2325 71.8724
L128.2325 71.2058
" />
<path d="M128.2325 71.3962
L128.2801 71.3010
" />
<path d="M128.2801 71.3010
L128.3277 71.2534
" />
<path d="M128.3277 71.2534
L128.4229 71.2058
" />
<path d="M128.4229 71.2058
L128.5182 71.2058
" />
<path d="M128.9944 71.8724
L128.8991 71.8248
" />
<path d="M128.8991 71.8248
L128.8515 71.7772
" />
<path d="M128.8515 71.7772
L128.8039 71.6819
" />
<path d="M128.8039 71.6819
L128.8039 71.3962
" />
<path d="M128.8039 71.3962
L128.8515 71.3010
" />
<path d="M128.8515 71.3010
L128.8991 71.2534
" />
<path d="M128.8991 71.2534
L128.9944 71.2058
" />
<path d="M128.9944 71.2058
L129.1372 71.2058
" />
<path d="M129.1372 71.2058
L129.2325 71.2534
" />
<path d="M129.2325 71.2534
L129.2801 71.3010
" />
<path d="M129.2801 71.3010
L129.3277 71.3962
" />
<path d="M129.3277 71.3962
L129.3277 71.6819
" />
<path d="M129.3277 71.6819
L129.2801 71.7772
" />
<path d="M129.2801 71.7772
L129.2325 71.8248
" />
<path d="M129.2325 71.8248
L129.1372 71.8724
" />
<path d="M129.1372 71.8724
L128.9944 71.8724
" />
<path d="M129.7563 71.2058
L129.7563 71.8724
" />
<path d="M129.7563 71.3010
L129.8039 71.2534
" />
<path d="M129.8039 71.2534
L129.8991 71.2058
" />
<path d="M129.8991 71.2058
L130.0420 71.2058
" />
<path d="M130.0420 71.2058
L130.1372 71.2534
" />
<path d="M130.1372 71.2534
L130.1848 71.3486
" />
<path d="M130.1848 71.3486
L130.1848 71.8724
" />
<path d="M130.8039 71.8724
L130.7086 71.8248
" />
<path d="M130.7086 71.8248
L130.6610 71.7772
" />
<path d="M130.6610 71.7772
L130.6134 71.6819
" />
<path d="M130.6134 71.6819
L130.6134 71.3962
" />
<path d="M130.6134 71.3962
L130.6610 71.3010
" />
<path d="M130.6610 71.3010
L130.7086 71.2534
" />
<path d="M130.7086 71.2534
L130.8039 71.2058
" />
<path d="M130.8039 71.2058
L130.9467 71.2058
" />
<path d="M130.9467 71.2058
L131.0420 71.2534
" />
<path d="M131.0420 71.2534
L131.0896 71.3010
" />
<path d="M131.0896 71.3010
L131.1372 71.3962
" />
<path d="M131.1372 71.3962
L131.1372 71.6819
" />
<path d="M131.1372 71.6819
L131.0896 71.7772
" />
<path d="M131.0896 71.7772
L131.0420 71.8248
" />
<path d="M131.0420 71.8248
L130.9467 71.8724
" />
<path d="M130.9467 71.8724
L130.8039 71.8724
" />
<path d="M131.5182 71.8248
L131.6134 71.8724
" />
<path d="M131.6134 71.8724
L131.8039 71.8724
" />
<path d="M131.8039 71.8724
L131.8991 71.8248
" />
<path d="M131.8991 71.8248
L131.9467 71.7296
" />
<path d="M131.9467 71.7296
L131.9467 71.6819
" />
<path d="M131.9467 71.6819
L131.8991 71.5867
" />
<path d="M131.8991 71.5867
L131.8039 71.5391
" />
<path d="M131.8039 71.5391
L131.6610 71.5391
" />
<path d="M131.6610 71.5391
L131.5658 71.4915
" />
<path d="M131.5658 71.4915
L131.5182 71.3962
" />
<path d="M131.5182 71.3962
L131.5182 71.3486
" />
<path d="M131.5182 71.3486
L131.5658 71.2534
" />
<path d="M131.5658 71.2534
L131.6610 71.2058
" />
<path d="M131.6610 71.2058
L131.8039 71.2058
" />
<path d="M131.8039 71.2058
L131.8991 71.2534
" />
</g><path d="M125.5000 70.5000
L131.0000 70.5000
" />
</g>
<g style="fill:none; 
stroke:#000000; stroke-width:0.1500; stroke-opacity:1; 
stroke-linecap:round; stroke-linejoin:round;">
<text x="107.1562" y="121.2135"
textLength="5.0595" font-size="1.3333" lengthAdjust="spacingAndGlyphs"
text-anchor="middle" opacity="0" stroke-opacity="0">BACK1</text>
<g class="stroked-text"><desc>BACK1</desc>
<path d="M105.3229 120.6445
L105.4658 120.6921
" />
<path d="M105.4658 120.6921
L105.5134 120.7397
" />
<path d="M105.5134 120.7397
L105.5610 120.8350
" />
<path d="M105.5610 120.8350
L105.5610 120.9778
" />
<path d="M105.5610 120.9778
L105.5134 121.0731
" />
<path d="M105.5134 121.0731
L105.4658 121.1207
" />
<path d="M105.4658 121.1207
L105.3705 121.1683
" />
<path d="M105.3705 121.1683
L104.9896 121.1683
" />
<path d="M104.9896 121.1683
L104.9896 120.1683
" />
<path d="M104.9896 120.1683
L105.3229 120.1683
" />
<path d="M105.3229 120.1683
L105.4182 120.2159
" />
<path d="M105.4182 120.2159
L105.4658 120.2636
" />
<path d="M105.4658 120.2636
L105.5134 120.3588
" />
<path d="M105.5134 120.3588
L105.5134 120.4540
" />
<path d="M105.5134 120.4540
L105.4658 120.5493
" />
<path d="M105.4658 120.5493
L105.4182 120.5969
" />
<path d="M105.4182 120.5969
L105.3229 120.6445
" />
<path d="M105.3229 120.6445
L104.9896 120.6445
" />
<path d="M105.9420 120.8826
L106.4182 120.8826
" />
<path d="M105.8467 121.1683
L106.1801 120.1683
" />
<path d="M106.1801 120.1683
L106.5134 121.1683
" />
<path d="M107.4182 121.0731
L107.3705 121.1207
" />
<path d="M107.3705 121.1207
L107.2277 121.1683
" />
<path d="M107.2277 121.1683
L107.1324 121.1683
" />
<path d="M107.1324 121.1683
L106.9896 121.1207
" />
<path d="M106.9896 121.1207
L106.8943 121.0255
" />
<path d="M106.8943 121.0255
L106.8467 120.9302
" />
<path d="M106.8467 120.9302
L106.7991 120.7397
" />
<path d="M106.7991 120.7397
L106.7991 120.5969
" />
<path d="M106.7991 120.5969
L106.8467 120.4064
" />
<path d="M106.8467 120.4064
L106.8943 120.3112
" />
<path d="M106.8943 120.3112
L106.9896 120.2159
" />
<path d="M106.9896 120.2159
L107.1324 120.1683
" />
<path d="M107.1324 120.1683
L107.2277 120.1683
" />
<path d="M107.2277 120.1683
L107.3705 120.2159
" />
<path d="M107.3705 120.2159
L107.4182 120.2636
" />
<path d="M107.8467 121.1683
L107.8467 120.1683
" />
<path d="M108.4182 121.1683
L107.9896 120.5969
" />
<path d="M108.4182 120.1683
L107.8467 120.7397
" />
<path d="M109.3705 121.1683
L108.7991 121.1683
" />
<path d="M109.0848 121.1683
L109.0848 120.1683
" />
<path d="M109.0848 120.1683
L108.9896 120.3112
" />
<path d="M108.9896 120.3112
L108.8943 120.4064
" />
<path d="M108.8943 120.4064
L108.7991 120.4540
" />
</g><text x="159.6062" y="69.8000"
textLength="3.2976" font-size="1.3333" lengthAdjust="spacingAndGlyphs"
text-anchor="middle" opacity="0" stroke-opacity="0">SW1</text>
<g class="stroked-text"><desc>SW1</desc>
<path d="M158.2729 69.7072
L158.4158 69.7548
" />
<path d="M158.4158 69.7548
L158.6539 69.7548
" />
<path d="M158.6539 69.7548
L158.7491 69.7072
" />
<path d="M158.7491 69.7072
L158.7967 69.6596
" />
<path d="M158.7967 69.6596
L158.8443 69.5643
" />
<path d="M158.8443 69.5643
L158.8443 69.4691
" />
<path d="M158.8443 69.4691
L158.7967 69.3739
" />
<path d="M158.7967 69.3739
L158.7491 69.3262
" />
<path d="M158.7491 69.3262
L158.6539 69.2786
" />
<path d="M158.6539 69.2786
L158.4634 69.2310
" />
<path d="M158.4634 69.2310
L158.3682 69.1834
" />
<path d="M158.3682 69.1834
L158.3205 69.1358
" />
<path d="M158.3205 69.1358
L158.2729 69.0405
" />
<path d="M158.2729 69.0405
L158.2729 68.9453
" />
<path d="M158.2729 68.9453
L158.3205 68.8501
" />
<path d="M158.3205 68.8501
L158.3682 68.8024
" />
<path d="M158.3682 68.8024
L158.4634 68.7548
" />
<path d="M158.4634 68.7548
L158.7015 68.7548
" />
<path d="M158.7015 68.7548
L158.8443 68.8024
" />
<path d="M159.1777 68.7548
L159.4158 69.7548
" />
<path d="M159.4158 69.7548
L159.6062 69.0405
" />
<path d="M159.6062 69.0405
L159.7967 69.7548
" />
<path d="M159.7967 69.7548
L160.0348 68.7548
" />
<path d="M160.9396 69.7548
L160.3682 69.7548
" />
<path d="M160.6539 69.7548
L160.6539 68.7548
" />
<path d="M160.6539 68.7548
L160.5586 68.8977
" />
<path d="M160.5586 68.8977
L160.4634 68.9929
" />
<path d="M160.4634 68.9929
L160.3682 69.0405
" />
</g><text x="164.3063" y="121.2135"
textLength="12.7262" font-size="1.3333" lengthAdjust="spacingAndGlyphs"
text-anchor="middle" opacity="0" stroke-opacity="0">FORWARDTRACK1</text>
<g class="stroked-text"><desc>FORWARDTRACK1</desc>
<path d="M158.6396 120.6445
L158.3063 120.6445
" />
<path d="M158.3063 121.1683
L158.3063 120.1683
" />
<path d="M158.3063 120.1683
L158.7824 120.1683
" />
<path d="M159.3539 120.1683
L159.5443 120.1683
" />
<path d="M159.5443 120.1683
L159.6396 120.2159
" />
<path d="M159.6396 120.2159
L159.7348 120.3112
" />
<path d="M159.7348 120.3112
L159.7824 120.5017
" />
<path d="M159.7824 120.5017
L159.7824 120.8350
" />
<path d="M159.7824 120.8350
L159.7348 121.0255
" />
<path d="M159.7348 121.0255
L159.6396 121.1207
" />
<path d="M159.6396 121.1207
L159.5443 121.1683
" />
<path d="M159.5443 121.1683
L159.3539 121.1683
" />
<path d="M159.3539 121.1683
L159.2586 121.1207
" />
<path d="M159.2586 121.1207
L159.1634 121.0255
" />
<path d="M159.1634 121.0255
L159.1158 120.8350
" />
<path d="M159.1158 120.8350
L159.1158 120.5017
" />
<path d="M159.1158 120.5017
L159.1634 120.3112
" />
<path d="M159.1634 120.3112
L159.2586 120.2159
" />
<path d="M159.2586 120.2159
L159.3539 120.1683
" />
<path d="M160.7824 121.1683
L160.4491 120.6921
" />
<path d="M160.2110 121.1683
L160.2110 120.1683
" />
<path d="M160.2110 120.1683
L160.5920 120.1683
" />
<path d="M160.5920 120.1683
L160.6872 120.2159
" />
<path d="M160.6872 120.2159
L160.7348 120.2636
" />
<path d="M160.7348 120.2636
L160.7824 120.3588
" />
<path d="M160.7824 120.3588
L160.7824 120.5017
" />
<path d="M160.7824 120.5017
L160.7348 120.5969
" />
<path d="M160.7348 120.5969
L160.6872 120.6445
" />
<path d="M160.6872 120.6445
L160.5920 120.6921
" />
<path d="M160.5920 120.6921
L160.2110 120.6921
" />
<path d="M161.1158 120.1683
L161.3539 121.1683
" />
<path d="M161.3539 121.1683
L161.5443 120.4540
" />
<path d="M161.5443 120.4540
L161.7348 121.1683
" />
<path d="M161.7348 121.1683
L161.9729 120.1683
" />
<path d="M162.3063 120.8826
L162.7824 120.8826
" />
<path d="M162.2110 121.1683
L162.5443 120.1683
" />
<path d="M162.5443 120.1683
L162.8777 121.1683
" />
<path d="M163.7824 121.1683
L163.4491 120.6921
" />
<path d="M163.2110 121.1683
L163.2110 120.1683
" />
<path d="M163.2110 120.1683
L163.5920 120.1683
" />
<path d="M163.5920 120.1683
L163.6872 120.2159
" />
<path d="M163.6872 120.2159
L163.7348 120.2636
" />
<path d="M163.7348 120.2636
L163.7824 120.3588
" />
<path d="M163.7824 120.3588
L163.7824 120.5017
" />
<path d="M163.7824 120.5017
L163.7348 120.5969
" />
<path d="M163.7348 120.5969
L163.6872 120.6445
" />
<path d="M163.6872 120.6445
L163.5920 120.6921
" />
<path d="M163.5920 120.6921
L163.2110 120.6921
" />
<path d="M164.2110 121.1683
L164.2110 120.1683
" />
<path d="M164.2110 120.1683
L164.4491 120.1683
" />
<path d="M164.4491 120.1683
L164.5920 120.2159
" />
<path d="M164.5920 120.2159
L164.6872 120.3112
" />
<path d="M164.6872 120.3112
L164.7348 120.4064
" />
<path d="M164.7348 120.4064
L164.7824 120.5969
" />
<path d="M164.7824 120.5969
L164.7824 120.7397
" />
<path d="M164.7824 120.7397
L164.7348 120.9302
" />
<path d="M164.7348 120.9302
L164.6872 121.0255
" />
<path d="M164.6872 121.0255
L164.5920 121.1207
" />
<path d="M164.5920 121.1207
L164.4491 121.1683
" />
<path d="M164.4491 121.1683
L164.2110 121.1683
" />
<path d="M165.0682 120.1683
L165.6396 120.1683
" />
<path d="M165.3539 121.1683
L165.3539 120.1683
" />
<path d="M166.5443 121.1683
L166.2110 120.6921
" />
<path d="M165.9729 121.1683
L165.9729 120.1683
" />
<path d="M165.9729 120.1683
L166.3539 120.1683
" />
<path d="M166.3539 120.1683
L166.4491 120.2159
" />
<path d="M166.4491 120.2159
L166.4967 120.2636
" />
<path d="M166.4967 120.2636
L166.5443 120.3588
" />
<path d="M166.5443 120.3588
L166.5443 120.5017
" />
<path d="M166.5443 120.5017
L166.4967 120.5969
" />
<path d="M166.4967 120.5969
L166.4491 120.6445
" />
<path d="M166.4491 120.6445
L166.3539 120.6921
" />
<path d="M166.3539 120.6921
L165.9729 120.6921
" />
<path d="M166.9253 120.8826
L167.4015 120.8826
" />
<path d="M166.8301 121.1683
L167.1634 120.1683
" />
<path d="M167.1634 120.1683
L167.4967 121.1683
" />
<path d="M168.4015 121.0731
L168.3539 121.1207
" />
<path d="M168.3539 121.1207
L168.2110 121.1683
" />
<path d="M168.2110 121.1683
L168.1158 121.1683
" />
<path d="M168.1158 121.1683
L167.9729 121.1207
" />
<path d="M167.9729 121.1207
L167.8777 121.0255
" />
<path d="M167.8777 121.0255
L167.8301 120.9302
" />
<path d="M167.8301 120.9302
L167.7824 120.7397
" />
<path d="M167.7824 120.7397
L167.7824 120.5969
" />
<path d="M167.7824 120.5969
L167.8301 120.4064
" />
<path d="M167.8301 120.4064
L167.8777 120.3112
" />
<path d="M167.8777 120.3112
L167.9729 120.2159
" />
<path d="M167.9729 120.2159
L168.1158 120.1683
" />
<path d="M168.1158 120.1683
L168.2110 120.1683
" />
<path d="M168.2110 120.1683
L168.3539 120.2159
" />
<path d="M168.3539 120.2159
L168.4015 120.2636
" />
<path d="M168.8301 121.1683
L168.8301 120.1683
" />
<path d="M169.4015 121.1683
L168.9729 120.5969
" />
<path d="M169.4015 120.1683
L168.8301 120.7397
" />
<path d="M170.3539 121.1683
L169.7824 121.1683
" />
<path d="M170.0682 121.1683
L170.0682 120.1683
" />
<path d="M170.0682 120.1683
L169.9729 120.3112
" />
<path d="M169.9729 120.3112
L169.8777 120.4064
" />
<path d="M169.8777 120.4064
L169.7824 120.4540
" />
</g></g>
<g style="fill:none; 
stroke:#000000; stroke-width:0.1016; stroke-opacity:1; 
stroke-linecap:round; stroke-linejoin:round;">
<g transform="rotate(-90.000000 74.0000 110.8937)">
<text x="74.0000" y="111.2112"
textLength="1.4478" font-size="0.8467" lengthAdjust="spacingAndGlyphs"
text-anchor="middle" opacity="0" stroke-opacity="0">U1</text>
</g>
<g class="stroked-text"><desc>U1</desc>
<path d="M73.6535 111.3776
L74.1675 111.3776
" />
<path d="M74.1675 111.3776
L74.2280 111.3473
" />
<path d="M74.2280 111.3473
L74.2582 111.3171
" />
<path d="M74.2582 111.3171
L74.2885 111.2566
" />
<path d="M74.2885 111.2566
L74.2885 111.1357
" />
<path d="M74.2885 111.1357
L74.2582 111.0752
" />
<path d="M74.2582 111.0752
L74.2280 111.0449
" />
<path d="M74.2280 111.0449
L74.1675 111.0147
" />
<path d="M74.1675 111.0147
L73.6535 111.0147
" />
<path d="M74.2885 110.3797
L74.2885 110.7426
" />
<path d="M74.2885 110.5611
L73.6535 110.5611
" />
<path d="M73.6535 110.5611
L73.7442 110.6216
" />
<path d="M73.7442 110.6216
L73.8047 110.6821
" />
<path d="M73.8047 110.6821
L73.8349 110.7426
" />
</g></g>
<g style="fill:none; 
stroke:#000000; stroke-width:0.1500; stroke-opacity:1; 
stroke-linecap:round; stroke-linejoin:round;">
<text x="145.2562" y="121.2135"
textLength="8.1071" font-size="1.3333" lengthAdjust="spacingAndGlyphs"
text-anchor="middle" opacity="0" stroke-opacity="0">FORWARD1</text>
<g class="stroked-text"><desc>FORWARD1</desc>
<path d="M141.8991 120.6445
L141.5658 120.6445
" />
<path d="M141.5658 121.1683
L141.5658 120.1683
" />
<path d="M141.5658 120.1683
L142.0420 120.1683
" />
<path d="M142.6134 120.1683
L142.8039 120.1683
" />
<path d="M142.8039 120.1683
L142.8991 120.2159
" />
<path d="M142.8991 120.2159
L142.9943 120.3112
" />
<path d="M142.9943 120.3112
L143.0420 120.5017
" />
<path d="M143.0420 120.5017
L143.0420 120.8350
" />
<path d="M143.0420 120.8350
L142.9943 121.0255
" />
<path d="M142.9943 121.0255
L142.8991 121.1207
" />
<path d="M142.8991 121.1207
L142.8039 121.1683
" />
<path d="M142.8039 121.1683
L142.6134 121.1683
" />
<path d="M142.6134 121.1683
L142.5182 121.1207
" />
<path d="M142.5182 121.1207
L142.4229 121.0255
" />
<path d="M142.4229 121.0255
L142.3753 120.8350
" />
<path d="M142.3753 120.8350
L142.3753 120.5017
" />
<path d="M142.3753 120.5017
L142.4229 120.3112
" />
<path d="M142.4229 120.3112
L142.5182 120.2159
" />
<path d="M142.5182 120.2159
L142.6134 120.1683
" />
<path d="M144.0420 121.1683
L143.7086 120.6921
" />
<path d="M143.4705 121.1683
L143.4705 120.1683
" />
<path d="M143.4705 120.1683
L143.8515 120.1683
" />
<path d="M143.8515 120.1683
L143.9467 120.2159
" />
<path d="M143.9467 120.2159
L143.9943 120.2636
" />
<path d="M143.9943 120.2636
L144.0420 120.3588
" />
<path d="M144.0420 120.3588
L144.0420 120.5017
" />
<path d="M144.0420 120.5017
L143.9943 120.5969
" />
<path d="M143.9943 120.5969
L143.9467 120.6445
" />
<path d="M143.9467 120.6445
L143.8515 120.6921
" />
<path d="M143.8515 120.6921
L143.4705 120.6921
" />
<path d="M144.3753 120.1683
L144.6134 121.1683
" />
<path d="M144.6134 121.1683
L144.8039 120.4540
" />
<path d="M144.8039 120.4540
L144.9943 121.1683
" />
<path d="M144.9943 121.1683
L145.2324 120.1683
" />
<path d="M145.5658 120.8826
L146.0420 120.8826
" />
<path d="M145.4705 121.1683
L145.8039 120.1683
" />
<path d="M145.8039 120.1683
L146.1372 121.1683
" />
<path d="M147.0420 121.1683
L146.7086 120.6921
" />
<path d="M146.4705 121.1683
L146.4705 120.1683
" />
<path d="M146.4705 120.1683
L146.8515 120.1683
" />
<path d="M146.8515 120.1683
L146.9467 120.2159
" />
<path d="M146.9467 120.2159
L146.9943 120.2636
" />
<path d="M146.9943 120.2636
L147.0420 120.3588
" />
<path d="M147.0420 120.3588
L147.0420 120.5017
" />
<path d="M147.0420 120.5017
L146.9943 120.5969
" />
<path d="M146.9943 120.5969
L146.9467 120.6445
" />
<path d="M146.9467 120.6445
L146.8515 120.6921
" />
<path d="M146.8515 120.6921
L146.4705 120.6921
" />
<path d="M147.4705 121.1683
L147.4705 120.1683
" />
<path d="M147.4705 120.1683
L147.7086 120.1683
" />
<path d="M147.7086 120.1683
L147.8515 120.2159
" />
<path d="M147.8515 120.2159
L147.9467 120.3112
" />
<path d="M147.9467 120.3112
L147.9943 120.4064
" />
<path d="M147.9943 120.4064
L148.0420 120.5969
" />
<path d="M148.0420 120.5969
L148.0420 120.7397
" />
<path d="M148.0420 120.7397
L147.9943 120.9302
" />
<path d="M147.9943 120.9302
L147.9467 121.0255
" />
<path d="M147.9467 121.0255
L147.8515 121.1207
" />
<path d="M147.8515 121.1207
L147.7086 121.1683
" />
<path d="M147.7086 121.1683
L147.4705 121.1683
" />
<path d="M148.9943 121.1683
L148.4229 121.1683
" />
<path d="M148.7086 121.1683
L148.7086 120.1683
" />
<path d="M148.7086 120.1683
L148.6134 120.3112
" />
<path d="M148.6134 120.3112
L148.5182 120.4064
" />
<path d="M148.5182 120.4064
L148.4229 120.4540
" />
</g><text x="95.2500" y="70.1260"
textLength="7.1071" font-size="1.3333" lengthAdjust="spacingAndGlyphs"
text-anchor="middle" opacity="0" stroke-opacity="0">ON/OFF1</text>
<g class="stroked-text"><desc>ON/OFF1</desc>
<path d="M92.2500 69.0808
L92.4405 69.0808
" />
<path d="M92.4405 69.0808
L92.5357 69.1284
" />
<path d="M92.5357 69.1284
L92.6310 69.2237
" />
<path d="M92.6310 69.2237
L92.6786 69.4142
" />
<path d="M92.6786 69.4142
L92.6786 69.7475
" />
<path d="M92.6786 69.7475
L92.6310 69.9380
" />
<path d="M92.6310 69.9380
L92.5357 70.0332
" />
<path d="M92.5357 70.0332
L92.4405 70.0808
" />
<path d="M92.4405 70.0808
L92.2500 70.0808
" />
<path d="M92.2500 70.0808
L92.1548 70.0332
" />
<path d="M92.1548 70.0332
L92.0595 69.9380
" />
<path d="M92.0595 69.9380
L92.0119 69.7475
" />
<path d="M92.0119 69.7475
L92.0119 69.4142
" />
<path d="M92.0119 69.4142
L92.0595 69.2237
" />
<path d="M92.0595 69.2237
L92.1548 69.1284
" />
<path d="M92.1548 69.1284
L92.2500 69.0808
" />
<path d="M93.1071 70.0808
L93.1071 69.0808
" />
<path d="M93.1071 69.0808
L93.6786 70.0808
" />
<path d="M93.6786 70.0808
L93.6786 69.0808
" />
<path d="M94.8690 69.0332
L94.0119 70.3189
" />
<path d="M95.3929 69.0808
L95.5833 69.0808
" />
<path d="M95.5833 69.0808
L95.6786 69.1284
" />
<path d="M95.6786 69.1284
L95.7738 69.2237
" />
<path d="M95.7738 69.2237
L95.8214 69.4142
" />
<path d="M95.8214 69.4142
L95.8214 69.7475
" />
<path d="M95.8214 69.7475
L95.7738 69.9380
" />
<path d="M95.7738 69.9380
L95.6786 70.0332
" />
<path d="M95.6786 70.0332
L95.5833 70.0808
" />
<path d="M95.5833 70.0808
L95.3929 70.0808
" />
<path d="M95.3929 70.0808
L95.2976 70.0332
" />
<path d="M95.2976 70.0332
L95.2024 69.9380
" />
<path d="M95.2024 69.9380
L95.1548 69.7475
" />
<path d="M95.1548 69.7475
L95.1548 69.4142
" />
<path d="M95.1548 69.4142
L95.2024 69.2237
" />
<path d="M95.2024 69.2237
L95.2976 69.1284
" />
<path d="M95.2976 69.1284
L95.3929 69.0808
" />
<path d="M96.5833 69.5570
L96.2500 69.5570
" />
<path d="M96.2500 70.0808
L96.2500 69.0808
" />
<path d="M96.2500 69.0808
L96.7262 69.0808
" />
<path d="M97.4405 69.5570
L97.1071 69.5570
" />
<path d="M97.1071 70.0808
L97.1071 69.0808
" />
<path d="M97.1071 69.0808
L97.5833 69.0808
" />
<path d="M98.4881 70.0808
L97.9167 70.0808
" />
<path d="M98.2024 70.0808
L98.2024 69.0808
" />
<path d="M98.2024 69.0808
L98.1071 69.2237
" />
<path d="M98.1071 69.2237
L98.0119 69.3189
" />
<path d="M98.0119 69.3189
L97.9167 69.3665
" />
</g><g transform="rotate(-90.000000 77.3750 77.7500)">
<text x="77.3750" y="78.2500"
textLength="2.2024" font-size="1.3333" lengthAdjust="spacingAndGlyphs"
text-anchor="middle" opacity="0" stroke-opacity="0">D1</text>
</g>
<g class="stroked-text"><desc>D1</desc>
<path d="M77.8298 78.4881
L76.8298 78.4881
" />
<path d="M76.8298 78.4881
L76.8298 78.2500
" />
<path d="M76.8298 78.2500
L76.8774 78.1071
" />
<path d="M76.8774 78.1071
L76.9727 78.0119
" />
<path d="M76.9727 78.0119
L77.0679 77.9643
" />
<path d="M77.0679 77.9643
L77.2584 77.9167
" />
<path d="M77.2584 77.9167
L77.4012 77.9167
" />
<path d="M77.4012 77.9167
L77.5917 77.9643
" />
<path d="M77.5917 77.9643
L77.6870 78.0119
" />
<path d="M77.6870 78.0119
L77.7822 78.1071
" />
<path d="M77.7822 78.1071
L77.8298 78.2500
" />
<path d="M77.8298 78.2500
L77.8298 78.4881
" />
<path d="M77.8298 76.9643
L77.8298 77.5357
" />
<path d="M77.8298 77.2500
L76.8298 77.2500
" />
<path d="M76.8298 77.2500
L76.9727 77.3452
" />
<path d="M76.9727 77.3452
L77.0679 77.4405
" />
<path d="M77.0679 77.4405
L77.1155 77.5357
" />
</g><g transform="rotate(-90.000000 79.2500 80.9500)">
<text x="79.2500" y="81.3500"
textLength="1.0519" font-size="1.0667" lengthAdjust="spacingAndGlyphs"
text-anchor="middle" opacity="0" stroke-opacity="0">1</text>
</g>
<g class="stroked-text"><desc>1</desc>
<path d="M79.6123 80.7214
L79.6123 81.1786
" />
<path d="M79.6123 80.9500
L78.8123 80.9500
" />
<path d="M78.8123 80.9500
L78.9266 81.0262
" />
<path d="M78.9266 81.0262
L79.0028 81.1024
" />
<path d="M79.0028 81.1024
L79.0409 81.1786
" />
</g><text x="126.2062" y="121.2135"
textLength="5.9643" font-size="1.3333" lengthAdjust="spacingAndGlyphs"
text-anchor="middle" opacity="0" stroke-opacity="0">PAUSE1</text>
<g class="stroked-text"><desc>PAUSE1</desc>
<path d="M123.5872 121.1683
L123.5872 120.1683
" />
<path d="M123.5872 120.1683
L123.9682 120.1683
" />
<path d="M123.9682 120.1683
L124.0634 120.2159
" />
<path d="M124.0634 120.2159
L124.1110 120.2636
" />
<path d="M124.1110 120.2636
L124.1586 120.3588
" />
<path d="M124.1586 120.3588
L124.1586 120.5017
" />
<path d="M124.1586 120.5017
L124.1110 120.5969
" />
<path d="M124.1110 120.5969
L124.0634 120.6445
" />
<path d="M124.0634 120.6445
L123.9682 120.6921
" />
<path d="M123.9682 120.6921
L123.5872 120.6921
" />
<path d="M124.5396 120.8826
L125.0158 120.8826
" />
<path d="M124.4443 121.1683
L124.7777 120.1683
" />
<path d="M124.7777 120.1683
L125.1110 121.1683
" />
<path d="M125.4443 120.1683
L125.4443 120.9778
" />
<path d="M125.4443 120.9778
L125.4920 121.0731
" />
<path d="M125.4920 121.0731
L125.5396 121.1207
" />
<path d="M125.5396 121.1207
L125.6348 121.1683
" />
<path d="M125.6348 121.1683
L125.8253 121.1683
" />
<path d="M125.8253 121.1683
L125.9205 121.1207
" />
<path d="M125.9205 121.1207
L125.9682 121.0731
" />
<path d="M125.9682 121.0731
L126.0158 120.9778
" />
<path d="M126.0158 120.9778
L126.0158 120.1683
" />
<path d="M126.4443 121.1207
L126.5872 121.1683
" />
<path d="M126.5872 121.1683
L126.8253 121.1683
" />
<path d="M126.8253 121.1683
L126.9205 121.1207
" />
<path d="M126.9205 121.1207
L126.9682 121.0731
" />
<path d="M126.9682 121.0731
L127.0158 120.9778
" />
<path d="M127.0158 120.9778
L127.0158 120.8826
" />
<path d="M127.0158 120.8826
L126.9682 120.7874
" />
<path d="M126.9682 120.7874
L126.9205 120.7397
" />
<path d="M126.9205 120.7397
L126.8253 120.6921
" />
<path d="M126.8253 120.6921
L126.6348 120.6445
" />
<path d="M126.6348 120.6445
L126.5396 120.5969
" />
<path d="M126.5396 120.5969
L126.4920 120.5493
" />
<path d="M126.4920 120.5493
L126.4443 120.4540
" />
<path d="M126.4443 120.4540
L126.4443 120.3588
" />
<path d="M126.4443 120.3588
L126.4920 120.2636
" />
<path d="M126.4920 120.2636
L126.5396 120.2159
" />
<path d="M126.5396 120.2159
L126.6348 120.1683
" />
<path d="M126.6348 120.1683
L126.8729 120.1683
" />
<path d="M126.8729 120.1683
L127.0158 120.2159
" />
<path d="M127.4443 120.6445
L127.7777 120.6445
" />
<path d="M127.9205 121.1683
L127.4443 121.1683
" />
<path d="M127.4443 121.1683
L127.4443 120.1683
" />
<path d="M127.4443 120.1683
L127.9205 120.1683
" />
<path d="M128.8729 121.1683
L128.3015 121.1683
" />
<path d="M128.5872 121.1683
L128.5872 120.1683
" />
<path d="M128.5872 120.1683
L128.4920 120.3112
" />
<path d="M128.4920 120.3112
L128.3967 120.4064
" />
<path d="M128.3967 120.4064
L128.3015 120.4540
" />
</g><text x="88.1063" y="121.1660"
textLength="9.6786" font-size="1.3333" lengthAdjust="spacingAndGlyphs"
text-anchor="middle" opacity="0" stroke-opacity="0">BACKTRACK1</text>
<g class="stroked-text"><desc>BACKTRACK1</desc>
<path d="M83.9634 120.5970
L84.1062 120.6446
" />
<path d="M84.1062 120.6446
L84.1539 120.6922
" />
<path d="M84.1539 120.6922
L84.2015 120.7875
" />
<path d="M84.2015 120.7875
L84.2015 120.9303
" />
<path d="M84.2015 120.9303
L84.1539 121.0256
" />
<path d="M84.1539 121.0256
L84.1062 121.0732
" />
<path d="M84.1062 121.0732
L84.0110 121.1208
" />
<path d="M84.0110 121.1208
L83.6301 121.1208
" />
<path d="M83.6301 121.1208
L83.6301 120.1208
" />
<path d="M83.6301 120.1208
L83.9634 120.1208
" />
<path d="M83.9634 120.1208
L84.0586 120.1684
" />
<path d="M84.0586 120.1684
L84.1062 120.2161
" />
<path d="M84.1062 120.2161
L84.1539 120.3113
" />
<path d="M84.1539 120.3113
L84.1539 120.4065
" />
<path d="M84.1539 120.4065
L84.1062 120.5018
" />
<path d="M84.1062 120.5018
L84.0586 120.5494
" />
<path d="M84.0586 120.5494
L83.9634 120.5970
" />
<path d="M83.9634 120.5970
L83.6301 120.5970
" />
<path d="M84.5824 120.8351
L85.0586 120.8351
" />
<path d="M84.4872 121.1208
L84.8205 120.1208
" />
<path d="M84.8205 120.1208
L85.1539 121.1208
" />
<path d="M86.0586 121.0256
L86.0110 121.0732
" />
<path d="M86.0110 121.0732
L85.8682 121.1208
" />
<path d="M85.8682 121.1208
L85.7729 121.1208
" />
<path d="M85.7729 121.1208
L85.6301 121.0732
" />
<path d="M85.6301 121.0732
L85.5348 120.9780
" />
<path d="M85.5348 120.9780
L85.4872 120.8827
" />
<path d="M85.4872 120.8827
L85.4396 120.6922
" />
<path d="M85.4396 120.6922
L85.4396 120.5494
" />
<path d="M85.4396 120.5494
L85.4872 120.3589
" />
<path d="M85.4872 120.3589
L85.5348 120.2637
" />
<path d="M85.5348 120.2637
L85.6301 120.1684
" />
<path d="M85.6301 120.1684
L85.7729 120.1208
" />
<path d="M85.7729 120.1208
L85.8682 120.1208
" />
<path d="M85.8682 120.1208
L86.0110 120.1684
" />
<path d="M86.0110 120.1684
L86.0586 120.2161
" />
<path d="M86.4872 121.1208
L86.4872 120.1208
" />
<path d="M87.0586 121.1208
L86.6301 120.5494
" />
<path d="M87.0586 120.1208
L86.4872 120.6922
" />
<path d="M87.3443 120.1208
L87.9158 120.1208
" />
<path d="M87.6301 121.1208
L87.6301 120.1208
" />
<path d="M88.8205 121.1208
L88.4872 120.6446
" />
<path d="M88.2491 121.1208
L88.2491 120.1208
" />
<path d="M88.2491 120.1208
L88.6301 120.1208
" />
<path d="M88.6301 120.1208
L88.7253 120.1684
" />
<path d="M88.7253 120.1684
L88.7729 120.2161
" />
<path d="M88.7729 120.2161
L88.8205 120.3113
" />
<path d="M88.8205 120.3113
L88.8205 120.4542
" />
<path d="M88.8205 120.4542
L88.7729 120.5494
" />
<path d="M88.7729 120.5494
L88.7253 120.5970
" />
<path d="M88.7253 120.5970
L88.6301 120.6446
" />
<path d="M88.6301 120.6446
L88.2491 120.6446
" />
<path d="M89.2015 120.8351
L89.6777 120.8351
" />
<path d="M89.1063 121.1208
L89.4396 120.1208
" />
<path d="M89.4396 120.1208
L89.7729 121.1208
" />
<path d="M90.6777 121.0256
L90.6301 121.0732
" />
<path d="M90.6301 121.0732
L90.4872 121.1208
" />
<path d="M90.4872 121.1208
L90.3920 121.1208
" />
<path d="M90.3920 121.1208
L90.2491 121.0732
" />
<path d="M90.2491 121.0732
L90.1539 120.9780
" />
<path d="M90.1539 120.9780
L90.1063 120.8827
" />
<path d="M90.1063 120.8827
L90.0586 120.6922
" />
<path d="M90.0586 120.6922
L90.0586 120.5494
" />
<path d="M90.0586 120.5494
L90.1063 120.3589
" />
<path d="M90.1063 120.3589
L90.1539 120.2637
" />
<path d="M90.1539 120.2637
L90.2491 120.1684
" />
<path d="M90.2491 120.1684
L90.3920 120.1208
" />
<path d="M90.3920 120.1208
L90.4872 120.1208
" />
<path d="M90.4872 120.1208
L90.6301 120.1684
" />
<path d="M90.6301 120.1684
L90.6777 120.2161
" />
<path d="M91.1063 121.1208
L91.1063 120.1208
" />
<path d="M91.6777 121.1208
L91.2491 120.5494
" />
<path d="M91.6777 120.1208
L91.1063 120.6922
" />
<path d="M92.6301 121.1208
L92.0586 121.1208
" />
<path d="M92.3443 121.1208
L92.3443 120.1208
" />
<path d="M92.3443 120.1208
L92.2491 120.2637
" />
<path d="M92.2491 120.2637
L92.1539 120.3589
" />
<path d="M92.1539 120.3589
L92.0586 120.4065
" />
</g><path style="fill:#000000; fill-opacity:1.0000; stroke:none;fill-rule:evenodd;"
d="M 121.5613,70.0541
121.5867,70.0657
121.6117,70.0865
121.6320,70.1136
121.6451,70.1432
121.6482,70.1571
121.6476,70.1916
121.6373,70.2234
121.6190,70.2511
121.5941,70.2733
121.5642,70.2886
121.5308,70.2956
121.4977,70.2934
121.4660,70.2817
121.4400,70.2620
121.4202,70.2362
121.4074,70.2062
121.4023,70.1742
121.4053,70.1419
121.4172,70.1115
121.4323,70.0910
121.4610,70.0675
121.4934,70.0533
121.5275,70.0487
Z" /> 
<path style="fill:#000000; fill-opacity:1.0000; stroke:none;fill-rule:evenodd;"
d="M 121.8850,70.8472
121.9119,70.8553
121.9398,70.8729
121.9629,70.8981
121.9794,70.9281
121.9872,70.9599
121.9876,70.9682
121.9824,71.0013
121.9681,71.0312
121.9465,71.0566
121.9193,71.0760
121.8886,71.0881
121.8559,71.0915
121.8299,71.0871
121.7952,71.0712
121.7684,71.0478
121.7502,71.0178
121.7413,70.9823
121.7411,70.9541
121.7490,70.9205
121.7657,70.8918
121.7895,70.8691
121.8184,70.8534
121.8509,70.8457
Z" /> 
<path style="fill:#000000; fill-opacity:1.0000; stroke:none;fill-rule:evenodd;"
d="M 122.6293,71.8000
122.6609,71.8155
122.6867,71.8398
122.7050,71.8715
122.7133,71.9049
122.7116,71.9379
122.7013,71.9687
122.6835,71.9958
122.6595,72.0179
122.6307,72.0332
122.5982,72.0403
122.5676,72.0384
122.5341,72.0269
122.5062,72.0070
122.4850,71.9808
122.4713,71.9501
122.4664,71.9168
122.4712,71.8828
122.4752,71.8715
122.4940,71.8394
122.5203,71.8154
122.5528,71.8002
122.5902,71.7945
122.5933,71.7945
Z" /> 
<path style="fill:#000000; fill-opacity:1.0000; stroke:none;fill-rule:evenodd;"
d="M 123.1425,70.8362
123.1739,70.8501
123.1997,70.8738
123.2199,70.9072
123.2230,70.9143
123.2307,70.9463
123.2285,70.9779
123.2177,71.0077
123.1997,71.0341
123.1757,71.0555
123.1471,71.0704
123.1151,71.0773
123.0856,71.0756
123.0509,71.0638
123.0222,71.0435
123.0006,71.0164
122.9876,70.9840
122.9844,70.9566
122.9892,70.9191
123.0032,70.8867
123.0252,70.8608
123.0542,70.8425
123.0889,70.8329
123.1053,70.8318
Z" /> 
<path style="fill:#000000; fill-opacity:1.0000; stroke:none;fill-rule:evenodd;"
d="M 121.0801,70.9001
121.1099,70.9130
121.1349,70.9326
121.1542,70.9576
121.1666,70.9866
121.1713,71.0182
121.1673,71.0508
121.1535,71.0833
121.1463,71.0943
121.1244,71.1155
121.0955,71.1310
121.0627,71.1399
121.0293,71.1413
121.0001,71.1351
120.9732,71.1198
120.9495,71.0966
120.9311,71.0685
120.9200,71.0384
120.9178,71.0187
120.9230,70.9883
120.9373,70.9585
120.9584,70.9320
120.9845,70.9114
121.0101,70.9003
121.0465,70.8954
Z" /> 
<path style="fill:#000000; fill-opacity:1.0000; stroke:none;fill-rule:evenodd;"
d="M 122.3305,71.0672
122.3618,71.0817
122.3871,71.1042
122.4051,71.1335
122.4145,71.1681
122.4155,71.1853
122.4104,71.2206
122.3961,71.2517
122.3741,71.2773
122.3463,71.2959
122.3140,71.3064
122.2791,71.3074
122.2668,71.3054
122.2330,71.2928
122.2056,71.2713
122.1839,71.2403
122.1766,71.2247
122.1685,71.1920
122.1704,71.1598
122.1812,71.1298
122.1999,71.1034
122.2251,71.0823
122.2559,71.0681
122.2910,71.0622
122.2947,71.0622
Z" /> 
<path style="fill:#000000; fill-opacity:1.0000; stroke:none;fill-rule:evenodd;"
d="M 123.4518,70.1894
123.4832,70.2038
123.5082,70.2264
123.5259,70.2561
123.5350,70.2918
123.5360,70.3102
123.5332,70.3405
123.5237,70.3654
123.5098,70.3851
123.4821,70.4096
123.4493,70.4250
123.4134,70.4305
123.3892,70.4282
123.3586,70.4173
123.3321,70.3980
123.3108,70.3727
123.2963,70.3434
123.2899,70.3122
123.2931,70.2815
123.2933,70.2806
123.3090,70.2441
123.3318,70.2157
123.3610,70.1960
123.3955,70.1858
123.4151,70.1844
Z" /> 
<path style="fill:#000000; fill-opacity:1.0000; stroke:none;fill-rule:evenodd;"
d="M 121.6678,71.2920
121.6993,71.3039
121.7272,71.3249
121.7323,71.3303
121.7509,71.3580
121.7603,71.3890
121.7613,71.4247
121.7534,71.4600
121.7358,71.4902
121.7092,71.5140
121.7037,71.5175
121.6771,71.5283
121.6463,71.5341
121.6166,71.5339
121.6065,71.5320
121.5743,71.5185
121.5481,71.4969
121.5289,71.4693
121.5176,71.4375
121.5151,71.4037
121.5223,71.3697
121.5262,71.3605
121.5458,71.3307
121.5717,71.3087
121.6020,71.2948
121.6347,71.2891
Z" /> 
<path style="fill:#000000; fill-opacity:1.0000; stroke:none;fill-rule:evenodd;"
d="M 122.1472,71.5813
122.1760,71.5971
122.1946,71.6153
122.2139,71.6470
122.2231,71.6796
122.2231,71.7116
122.2149,71.7417
122.1993,71.7686
122.1773,71.7910
122.1499,71.8075
122.1180,71.8167
122.0824,71.8175
122.0562,71.8123
122.0378,71.8030
122.0179,71.7868
121.9995,71.7668
121.9860,71.7464
121.9821,71.7373
121.9766,71.7062
121.9786,71.6731
121.9876,71.6422
121.9967,71.6258
122.0204,71.6008
122.0495,71.5837
122.0818,71.5747
122.1151,71.5738
Z" /> 
<path style="fill:#000000; fill-opacity:1.0000; stroke:none;fill-rule:evenodd;"
d="M 122.8192,71.3064
122.8505,71.3209
122.8625,71.3297
122.8782,71.3457
122.8915,71.3644
122.8948,71.3707
122.9034,71.4009
122.9047,71.4339
122.8989,71.4663
122.8866,71.4944
122.8784,71.5053
122.8511,71.5280
122.8184,71.5422
122.7831,71.5473
122.7478,71.5429
122.7280,71.5356
122.6992,71.5160
122.6768,71.4889
122.6624,71.4570
122.6577,71.4250
122.6627,71.3901
122.6765,71.3598
122.6975,71.3350
122.7240,71.3165
122.7543,71.3050
122.7866,71.3014
Z" /> 
<path style="fill:#000000; fill-opacity:1.0000; stroke:none;fill-rule:evenodd;"
d="M 122.9141,69.9388
122.9440,69.9561
122.9628,69.9747
122.9806,70.0043
122.9893,70.0375
122.9888,70.0717
122.9793,70.1043
122.9609,70.1328
122.9596,70.1342
122.9300,70.1584
122.8963,70.1727
122.8602,70.1765
122.8430,70.1746
122.8114,70.1634
122.7838,70.1429
122.7621,70.1146
122.7476,70.0802
122.7472,70.0786
122.7432,70.0481
122.7485,70.0189
122.7637,69.9883
122.7643,69.9874
122.7877,69.9600
122.8163,69.9414
122.8483,69.9315
122.8816,69.9306
Z" /> 
<path style="fill:#000000; fill-opacity:1.0000; stroke:none;fill-rule:evenodd;"
d="M 122.1231,70.3026
122.1505,70.3107
122.1575,70.3144
122.1849,70.3371
122.2042,70.3649
122.2153,70.3960
122.2182,70.4284
122.2130,70.4602
122.1997,70.4895
122.1783,70.5144
122.1550,70.5301
122.1349,70.5374
122.1102,70.5424
122.0851,70.5445
122.0643,70.5433
122.0580,70.5417
122.0232,70.5240
121.9968,70.4992
121.9794,70.4683
121.9717,70.4322
121.9718,70.4110
121.9796,70.3752
121.9972,70.3449
122.0240,70.3207
122.0329,70.3153
122.0602,70.3049
122.0917,70.3007
Z" /> 
<path style="fill:#000000; fill-opacity:1.0000; stroke:none;fill-rule:evenodd;"
d="M 122.4039,69.7132
122.4355,69.7233
122.4639,69.7424
122.4761,69.7552
122.4950,69.7858
122.5039,69.8178
122.5037,69.8498
122.4954,69.8803
122.4797,69.9077
122.4575,69.9306
122.4299,69.9475
122.3975,69.9569
122.3615,69.9572
122.3570,69.9566
122.3374,69.9500
122.3151,69.9374
122.2946,69.9214
122.2880,69.9148
122.2703,69.8875
122.2603,69.8551
122.2587,69.8210
122.2660,69.7888
122.2666,69.7873
122.2848,69.7569
122.3096,69.7340
122.3390,69.7189
122.3711,69.7119
Z" /> 
<path style="fill:#000000; fill-opacity:1.0000; stroke:none;fill-rule:evenodd;"
d="M 122.6483,70.6052
122.6744,70.6142
122.6980,70.6265
122.7152,70.6404
122.7307,70.6599
122.7355,70.6672
122.7460,70.6918
122.7508,70.7214
122.7498,70.7518
122.7430,70.7788
122.7381,70.7884
122.7146,70.8178
122.6861,70.8393
122.6546,70.8522
122.6220,70.8557
122.5900,70.8492
122.5858,70.8475
122.5524,70.8277
122.5279,70.8017
122.5175,70.7828
122.5073,70.7463
122.5076,70.7104
122.5176,70.6770
122.5367,70.6477
122.5641,70.6242
122.5888,70.6118
122.6196,70.6037
Z" /> 
<path style="fill:#000000; fill-opacity:1.0000; stroke:none;fill-rule:evenodd;"
d="M 122.9123,68.6783
122.9403,68.6855
122.9707,68.6979
122.9992,68.7135
123.0218,68.7302
123.0257,68.7340
123.0382,68.7478
123.0443,68.7585
123.0458,68.7708
123.0448,68.7853
123.0414,68.8051
123.0344,68.8192
123.0216,68.8327
123.0044,68.8452
122.9862,68.8510
122.9649,68.8500
122.9387,68.8421
122.9057,68.8273
122.9056,68.8272
122.8759,68.8111
122.8556,68.7962
122.8432,68.7810
122.8372,68.7637
122.8360,68.7482
122.8407,68.7212
122.8539,68.6994
122.8735,68.6843
122.8976,68.6777
Z" /> 
<path style="fill:#000000; fill-opacity:1.0000; stroke:none;fill-rule:evenodd;"
d="M 121.3313,70.4829
121.3614,70.4964
121.3857,70.5171
121.3905,70.5233
121.4027,70.5447
121.4125,70.5699
121.4182,70.5935
121.4189,70.6025
121.4157,70.6220
121.4072,70.6457
121.3951,70.6689
121.3901,70.6766
121.3694,70.6969
121.3415,70.7122
121.3098,70.7211
121.2775,70.7226
121.2669,70.7211
121.2379,70.7103
121.2111,70.6911
121.1895,70.6660
121.1786,70.6452
121.1737,70.6242
121.1718,70.5986
121.1732,70.5736
121.1777,70.5541
121.1780,70.5535
121.1965,70.5237
121.2231,70.4986
121.2353,70.4907
121.2655,70.4794
121.2984,70.4770
Z" /> 
<path style="fill:#000000; fill-opacity:1.0000; stroke:none;fill-rule:evenodd;"
d="M 123.0168,68.5018
123.0457,68.5145
123.0728,68.5341
123.0917,68.5541
123.1054,68.5732
123.1125,68.5890
123.1145,68.6062
123.1138,68.6204
123.1072,68.6406
123.0928,68.6596
123.0737,68.6733
123.0709,68.6746
123.0574,68.6799
123.0478,68.6816
123.0371,68.6795
123.0224,68.6744
123.0046,68.6658
122.9861,68.6533
122.9814,68.6494
122.9680,68.6389
122.9572,68.6326
122.9541,68.6317
122.9438,68.6272
122.9318,68.6156
122.9209,68.6006
122.9140,68.5854
122.9134,68.5828
122.9135,68.5575
122.9227,68.5323
122.9392,68.5116
122.9400,68.5109
122.9619,68.4994
122.9882,68.4966
Z" /> 
<path style="fill:#000000; fill-opacity:1.0000; stroke:none;fill-rule:evenodd;"
d="M 121.8653,69.3459
121.8851,69.3480
121.9019,69.3524
121.9199,69.3599
121.9215,69.3607
121.9594,69.3841
121.9930,69.4157
122.0194,69.4526
122.0245,69.4623
122.0332,69.4819
122.0386,69.5002
122.0415,69.5215
122.0430,69.5467
122.0420,69.5891
122.0348,69.6246
122.0203,69.6563
121.9973,69.6873
121.9901,69.6953
121.9558,69.7262
121.9186,69.7469
121.8765,69.7584
121.8440,69.7615
121.8202,69.7617
121.7986,69.7607
121.7835,69.7589
121.7821,69.7586
121.7456,69.7440
121.7102,69.7210
121.6792,69.6918
121.6617,69.6688
121.6410,69.6284
121.6301,69.5862
121.6284,69.5392
121.6285,69.5375
121.6365,69.4905
121.6545,69.4482
121.6820,69.4113
121.7185,69.3807
121.7511,69.3624
121.7709,69.3539
121.7878,69.3487
121.8061,69.3462
121.8302,69.3454
121.8384,69.3454
Z" /> 
<path style="fill:#000000; fill-opacity:1.0000; stroke:none;fill-rule:evenodd;"
d="M 124.0143,68.5719
124.0457,68.5806
124.0728,68.5979
124.0866,68.6114
124.1065,68.6371
124.1209,68.6659
124.1304,68.7002
124.1358,68.7419
124.1373,68.7679
124.1378,68.8063
124.1356,68.8369
124.1299,68.8631
124.1200,68.8884
124.1051,68.9160
124.1023,68.9208
124.0833,68.9523
124.1030,68.9731
124.1156,68.9881
124.1252,69.0023
124.1278,69.0075
124.1329,69.0341
124.1293,69.0607
124.1182,69.0842
124.1004,69.1014
124.0980,69.1027
124.0794,69.1086
124.0573,69.1095
124.0378,69.1054
124.0344,69.1038
124.0228,69.0959
124.0087,69.0845
124.0062,69.0823
123.9897,69.0695
123.9679,69.0557
123.9437,69.0424
123.9201,69.0311
123.8999,69.0232
123.8861,69.0203
123.8508,69.0168
123.8192,69.0072
123.7945,68.9923
123.7902,68.9884
123.7792,68.9765
123.7739,68.9663
123.7728,68.9531
123.7737,68.9384
123.7787,68.9122
123.7896,68.8928
123.8072,68.8796
123.8329,68.8719
123.8675,68.8690
123.8857,68.8691
123.9219,68.8684
123.9489,68.8640
123.9685,68.8552
123.9823,68.8414
123.9871,68.8333
123.9954,68.8069
123.9974,68.7755
123.9928,68.7434
123.9914,68.7384
123.9865,68.7248
123.9805,68.7194
123.9699,68.7196
123.9667,68.7201
123.9391,68.7197
123.9145,68.7103
123.8951,68.6935
123.8833,68.6708
123.8812,68.6612
123.8824,68.6327
123.8933,68.6086
123.9131,68.5896
123.9410,68.5767
123.9760,68.5707
123.9763,68.5707
Z" /> 
<path style="fill:#000000; fill-opacity:1.0000; stroke:none;fill-rule:evenodd;"
d="M 123.3432,68.6204
123.3542,68.6259
123.3694,68.6381
123.3806,68.6547
123.3886,68.6778
123.3944,68.7094
123.3958,68.7206
123.3992,68.7491
123.4021,68.7677
123.4056,68.7774
123.4106,68.7794
123.4179,68.7749
123.4287,68.7651
123.4307,68.7632
123.4768,68.7229
123.5197,68.6923
123.5589,68.6717
123.5943,68.6613
123.6110,68.6599
123.6325,68.6627
123.6592,68.6701
123.6869,68.6806
123.7119,68.6927
123.7301,68.7048
123.7316,68.7062
123.7442,68.7251
123.7485,68.7484
123.7448,68.7729
123.7333,68.7957
123.7210,68.8089
123.6999,68.8198
123.6729,68.8232
123.6426,68.8190
123.6309,68.8154
123.6122,68.8111
123.6000,68.8137
123.5877,68.8220
123.5696,68.8359
123.5481,68.8536
123.5254,68.8730
123.5041,68.8922
123.4864,68.9091
123.4835,68.9120
123.4564,68.9398
123.4739,68.9785
123.4853,69.0021
123.4979,69.0259
123.5081,69.0431
123.5215,69.0711
123.5240,69.0972
123.5164,69.1214
123.4992,69.1440
123.4767,69.1573
123.4507,69.1606
123.4229,69.1535
123.4194,69.1519
123.4008,69.1389
123.3830,69.1181
123.3647,69.0880
123.3588,69.0766
123.3504,69.0600
123.3441,69.0481
123.3416,69.0438
123.3365,69.0456
123.3246,69.0523
123.3099,69.0615
123.2878,69.0739
123.2613,69.0861
123.2418,69.0933
123.2210,69.0997
123.2066,69.1024
123.1948,69.1019
123.1815,69.0982
123.1799,69.0977
123.1576,69.0855
123.1407,69.0671
123.1316,69.0453
123.1306,69.0361
123.1358,69.0072
123.1510,68.9830
123.1762,68.9637
123.2038,68.9519
123.2190,68.9452
123.2386,68.9344
123.2553,68.9239
123.2871,68.9024
123.2738,68.8567
123.2672,68.8302
123.2609,68.7978
123.2558,68.7648
123.2541,68.7509
123.2512,68.7259
123.2485,68.7052
123.2462,68.6911
123.2450,68.6865
123.2457,68.6793
123.2505,68.6659
123.2543,68.6575
123.2708,68.6345
123.2926,68.6202
123.3174,68.6152
Z" /> 
<path style="fill:#000000; fill-opacity:1.0000; stroke:none;fill-rule:evenodd;"
d="M 122.5048,68.3099
122.5253,68.3227
122.5401,68.3412
122.5482,68.3633
122.5488,68.3867
122.5413,68.4092
122.5246,68.4286
122.5242,68.4289
122.5130,68.4424
122.5074,68.4625
122.5071,68.4652
122.5060,68.4924
122.5100,68.5099
122.5193,68.5183
122.5252,68.5191
122.5436,68.5163
122.5644,68.5073
122.5889,68.4915
122.6179,68.4681
122.6526,68.4366
122.6557,68.4336
122.6784,68.4132
122.6965,68.4006
122.7126,68.3952
122.7292,68.3961
122.7487,68.4026
122.7506,68.4034
122.7723,68.4168
122.7857,68.4357
122.7909,68.4607
122.7879,68.4923
122.7769,68.5310
122.7649,68.5614
122.7539,68.5885
122.7414,68.6224
122.7286,68.6590
122.7172,68.6944
122.7157,68.6993
122.6996,68.7482
122.6825,68.7934
122.6651,68.8335
122.6480,68.8672
122.6319,68.8929
122.6175,68.9092
122.6161,68.9103
122.5862,68.9275
122.5491,68.9402
122.5078,68.9481
122.4657,68.9505
122.4260,68.9468
122.4142,68.9443
122.3864,68.9360
122.3624,68.9254
122.3395,68.9109
122.3149,68.8907
122.2912,68.8685
122.2451,68.8236
122.2478,68.7956
122.2543,68.7658
122.2677,68.7443
122.2887,68.7300
122.2902,68.7294
122.3100,68.7237
122.3289,68.7249
122.3490,68.7335
122.3724,68.7503
122.3860,68.7620
122.4091,68.7819
122.4269,68.7949
122.4421,68.8024
122.4569,68.8057
122.4687,68.8063
122.4943,68.8052
122.5118,68.8006
122.5246,68.7908
122.5356,68.7742
122.5391,68.7675
122.5497,68.7440
122.5602,68.7168
122.5659,68.6993
122.5769,68.6627
122.5258,68.6627
122.5003,68.6624
122.4823,68.6608
122.4681,68.6572
122.4539,68.6508
122.4437,68.6452
122.4131,68.6231
122.3886,68.5955
122.3726,68.5652
122.3702,68.5574
122.3677,68.5419
122.3661,68.5186
122.3655,68.4911
122.3658,68.4716
122.3669,68.4430
122.3687,68.4223
122.3719,68.4062
122.3771,68.3911
122.3850,68.3738
122.3863,68.3712
122.4058,68.3398
122.4288,68.3188
122.4560,68.3076
122.4792,68.3052
Z" /> 
<path style="fill:#000000; fill-opacity:1.0000; stroke:none;fill-rule:evenodd;"
d="M 122.9792,67.8825
123.0198,67.8829
123.0547,67.8837
123.0857,67.8852
123.1145,67.8873
123.1431,67.8903
123.1732,67.8943
123.2067,67.8994
123.2455,67.9056
123.2773,67.9109
123.3920,67.9331
123.4965,67.9593
123.5910,67.9898
123.6758,68.0246
123.7457,68.0606
123.7655,68.0717
123.7817,68.0803
123.7917,68.0851
123.7935,68.0856
123.8000,68.0885
123.8133,68.0961
123.8310,68.1070
123.8372,68.1110
123.8563,68.1224
123.8724,68.1303
123.8829,68.1335
123.8845,68.1334
123.8971,68.1330
123.9160,68.1373
123.9381,68.1453
123.9602,68.1558
123.9762,68.1656
123.9891,68.1750
124.0091,68.1897
124.0340,68.2082
124.0620,68.2292
124.0888,68.2493
124.1188,68.2718
124.1487,68.2936
124.1762,68.3133
124.1990,68.3292
124.2130,68.3384
124.2444,68.3618
124.2790,68.3936
124.3149,68.4322
124.3505,68.4759
124.3555,68.4825
124.3831,68.5224
124.4026,68.5586
124.4156,68.5937
124.4200,68.6120
124.4250,68.6319
124.4326,68.6583
124.4419,68.6871
124.4482,68.7054
124.4596,68.7384
124.4681,68.7662
124.4742,68.7916
124.4782,68.8173
124.4807,68.8460
124.4820,68.8804
124.4825,68.9232
124.4825,68.9261
124.4825,68.9658
124.4819,68.9973
124.4804,69.0235
124.4778,69.0475
124.4738,69.0723
124.4684,69.1005
124.4502,69.1786
124.4284,69.2501
124.4015,69.3190
124.3680,69.3888
124.3440,69.4334
124.3136,69.4873
124.2876,69.5324
124.2651,69.5698
124.2449,69.6008
124.2263,69.6264
124.2081,69.6478
124.1895,69.6662
124.1695,69.6826
124.1470,69.6982
124.1212,69.7141
124.0911,69.7315
124.0907,69.7318
124.0255,69.7640
123.9608,69.7866
123.8976,69.7992
123.8366,69.8018
123.7789,69.7942
123.7697,69.7919
123.7441,69.7845
123.7175,69.7759
123.6993,69.7693
123.6803,69.7621
123.6586,69.7546
123.6321,69.7460
123.5988,69.7357
123.5607,69.7243
123.5400,69.7191
123.5119,69.7134
123.4803,69.7080
123.4523,69.7040
123.3993,69.6961
123.3499,69.6860
123.3005,69.6729
123.2478,69.6558
123.1975,69.6375
123.1658,69.6258
123.1345,69.6148
123.1066,69.6055
123.0851,69.5989
123.0800,69.5975
123.0566,69.5904
123.0286,69.5804
123.0016,69.5696
122.9983,69.5681
122.9791,69.5601
122.9516,69.5492
122.9184,69.5364
122.8819,69.5226
122.8444,69.5088
122.8378,69.5064
122.7964,69.4909
122.7516,69.4733
122.7072,69.4551
122.6665,69.4377
122.6351,69.4235
122.6035,69.4087
122.5728,69.3946
122.5456,69.3825
122.5243,69.3733
122.5154,69.3696
122.4770,69.3527
122.4341,69.3306
122.3907,69.3057
122.3507,69.2801
122.3232,69.2601
122.2871,69.2296
122.2487,69.1931
122.2095,69.1524
122.1709,69.1092
122.1345,69.0652
122.1016,69.0221
122.0737,68.9817
122.0523,68.9458
122.0438,68.9284
122.0374,68.9089
122.0309,68.8803
122.0247,68.8445
122.0188,68.8037
122.0135,68.7600
122.0090,68.7154
122.0057,68.6721
122.0037,68.6322
122.1564,68.6322
122.1590,68.6805
122.1649,68.7379
122.1676,68.7592
122.1717,68.7905
122.1756,68.8186
122.1788,68.8412
122.1811,68.8562
122.1819,68.8605
122.1888,68.8775
122.2026,68.9009
122.2222,68.9292
122.2464,68.9608
122.2739,68.9944
122.3035,69.0286
122.3341,69.0618
122.3643,69.0926
122.3931,69.1197
122.4151,69.1384
122.4345,69.1524
122.4595,69.1686
122.4878,69.1856
122.5167,69.2019
122.5435,69.2160
122.5658,69.2265
122.5788,69.2314
122.5883,69.2350
122.6061,69.2427
122.6301,69.2534
122.6586,69.2665
122.6858,69.2792
122.7223,69.2957
122.7656,69.3143
122.8119,69.3333
122.8573,69.3512
122.8913,69.3639
122.9280,69.3774
122.9642,69.3909
122.9973,69.4035
123.0250,69.4142
123.0447,69.4222
123.0465,69.4230
123.0730,69.4336
123.1044,69.4449
123.1345,69.4548
123.1395,69.4563
123.1680,69.4654
123.2013,69.4768
123.2339,69.4887
123.2461,69.4934
123.2806,69.5068
123.3104,69.5175
123.3378,69.5262
123.3652,69.5336
123.3951,69.5402
123.4299,69.5466
123.4719,69.5535
123.5023,69.5581
123.5399,69.5651
123.5842,69.5753
123.6313,69.5877
123.6776,69.6013
123.7193,69.6150
123.7275,69.6180
123.7677,69.6323
123.8003,69.6422
123.8276,69.6478
123.8522,69.6497
123.8765,69.6479
123.9031,69.6428
123.9158,69.6397
123.9490,69.6289
123.9861,69.6130
124.0236,69.5940
124.0576,69.5737
124.0844,69.5540
124.0846,69.5538
124.0997,69.5378
124.1185,69.5133
124.1398,69.4818
124.1628,69.4453
124.1865,69.4052
124.2098,69.3634
124.2318,69.3216
124.2515,69.2815
124.2679,69.2448
124.2798,69.2138
124.2996,69.1516
124.3139,69.0951
124.3233,69.0407
124.3284,68.9848
124.3299,68.9261
124.3300,68.8347
124.3023,68.7487
124.2923,68.7175
124.2831,68.6882
124.2755,68.6634
124.2702,68.6456
124.2686,68.6399
124.2612,68.6196
124.2485,68.5966
124.2296,68.5695
124.2035,68.5371
124.1892,68.5204
124.1701,68.4988
124.1551,68.4841
124.1416,68.4741
124.1270,68.4667
124.1156,68.4622
124.0927,68.4524
124.0701,68.4403
124.0579,68.4324
124.0449,68.4235
124.0246,68.4101
123.9993,68.3938
123.9712,68.3761
123.9555,68.3663
123.9271,68.3485
123.9004,68.3315
123.8776,68.3167
123.8609,68.3056
123.8550,68.3014
123.8356,68.2882
123.8145,68.2753
123.8100,68.2727
123.7905,68.2617
123.7689,68.2487
123.7613,68.2439
123.7380,68.2300
123.7073,68.2130
123.6723,68.1944
123.6359,68.1758
123.6010,68.1587
123.5706,68.1445
123.5516,68.1364
123.5046,68.1197
123.4477,68.1030
123.3820,68.0866
123.3089,68.0708
123.2489,68.0593
123.1335,68.0385
122.9082,68.0363
122.8472,68.0357
122.7961,68.0355
122.7538,68.0357
122.7190,68.0364
122.6904,68.0379
122.6667,68.0402
122.6468,68.0434
122.6293,68.0478
122.6130,68.0534
122.5967,68.0603
122.5790,68.0688
122.5731,68.0717
122.5434,68.0882
122.5088,68.1100
122.4730,68.1346
122.4392,68.1598
122.4131,68.1813
122.3922,68.1991
122.3690,68.2180
122.3549,68.2289
122.3306,68.2511
122.3040,68.2821
122.2763,68.3199
122.2488,68.3626
122.2225,68.4083
122.1987,68.4549
122.1787,68.5007
122.1681,68.5294
122.1609,68.5579
122.1570,68.5917
122.1564,68.6322
122.0037,68.6322
122.0037,68.6320
122.0032,68.5974
122.0044,68.5711
122.0122,68.5258
122.0270,68.4749
122.0479,68.4204
122.0736,68.3641
122.1032,68.3082
122.1355,68.2544
122.1695,68.2050
122.2041,68.1617
122.2383,68.1265
122.2540,68.1133
122.2732,68.0981
122.2962,68.0795
122.3182,68.0613
122.3198,68.0600
122.3858,68.0084
122.4504,67.9653
122.5126,67.9312
122.5717,67.9066
122.6040,67.8968
122.6182,67.8933
122.6313,67.8905
122.6445,67.8882
122.6593,67.8864
122.6769,67.8851
122.6987,67.8841
122.7259,67.8835
122.7600,67.8830
122.8023,67.8828
122.8541,67.8826
122.8733,67.8825
122.9309,67.8824
Z" /> 
<path style="fill:#000000; fill-opacity:1.0000; stroke:none;fill-rule:evenodd;"
d="M 122.7070,67.4838
122.7570,67.4863
122.8110,67.4911
122.8675,67.4977
122.9246,67.5061
122.9806,67.5159
123.0340,67.5270
123.0829,67.5391
123.1257,67.5520
123.1607,67.5654
123.1655,67.5676
123.1847,67.5761
123.2008,67.5821
123.2103,67.5844
123.2214,67.5859
123.2415,67.5898
123.2687,67.5959
123.3011,67.6035
123.3369,67.6123
123.3742,67.6218
123.4111,67.6315
123.4459,67.6409
123.4765,67.6496
123.4938,67.6548
123.5446,67.6710
123.5982,67.6886
123.6532,67.7073
123.7085,67.7264
123.7626,67.7456
123.8143,67.7644
123.8623,67.7823
123.9052,67.7989
123.9417,67.8135
123.9706,67.8258
123.9905,67.8354
123.9949,67.8378
124.0038,67.8424
124.0216,67.8510
124.0472,67.8632
124.0793,67.8783
124.1168,67.8958
124.1584,67.9150
124.2029,67.9355
124.2103,67.9389
124.2702,67.9665
124.3212,67.9902
124.3644,68.0107
124.4013,68.0285
124.4330,68.0446
124.4609,68.0593
124.4862,68.0736
124.5103,68.0879
124.5345,68.1030
124.5600,68.1196
124.5653,68.1231
124.6061,68.1511
124.6391,68.1761
124.6664,68.2007
124.6903,68.2271
124.7131,68.2576
124.7368,68.2946
124.7507,68.3179
124.7825,68.3728
124.8085,68.4204
124.8293,68.4625
124.8454,68.5012
124.8574,68.5383
124.8658,68.5758
124.8711,68.6158
124.8739,68.6600
124.8747,68.7105
124.8740,68.7677
124.8725,68.8240
124.8704,68.8696
124.8676,68.9047
124.8642,68.9298
124.8630,68.9358
124.8580,68.9589
124.8522,68.9878
124.8467,69.0172
124.8453,69.0249
124.8395,69.0496
124.8294,69.0829
124.8155,69.1233
124.7985,69.1693
124.7790,69.2195
124.7575,69.2723
124.7348,69.3263
124.7113,69.3799
124.6878,69.4316
124.6647,69.4800
124.6485,69.5123
124.6356,69.5385
124.6241,69.5635
124.6154,69.5842
124.6110,69.5968
124.6066,69.6092
124.5980,69.6296
124.5863,69.6559
124.5723,69.6861
124.5577,69.7166
124.5426,69.7479
124.5292,69.7768
124.5182,69.8012
124.5104,69.8193
124.5069,69.8292
124.5039,69.8388
124.4976,69.8573
124.4885,69.8830
124.4771,69.9143
124.4642,69.9496
124.4539,69.9775
124.4385,70.0195
124.4207,70.0692
124.4017,70.1235
124.3826,70.1791
124.3643,70.2330
124.3501,70.2759
124.3355,70.3198
124.3209,70.3626
124.3069,70.4025
124.2943,70.4376
124.2836,70.4662
124.2755,70.4863
124.2739,70.4899
124.2663,70.5065
124.2548,70.5318
124.2400,70.5641
124.2228,70.6019
124.2037,70.6435
124.1836,70.6873
124.1696,70.7179
124.1491,70.7626
124.1292,70.8065
124.1104,70.8479
124.0937,70.8852
124.0796,70.9166
124.0691,70.9406
124.0643,70.9516
124.0554,70.9720
124.0424,71.0003
124.0264,71.0343
124.0085,71.0719
123.9897,71.1109
123.9782,71.1346
123.9585,71.1749
123.9385,71.2167
123.9192,71.2573
123.9020,71.2942
123.8879,71.3249
123.8824,71.3373
123.8692,71.3664
123.8516,71.4032
123.8308,71.4459
123.8077,71.4925
123.7833,71.5411
123.7585,71.5895
123.7344,71.6361
123.7121,71.6786
123.6923,71.7153
123.6763,71.7441
123.6738,71.7483
123.6537,71.7792
123.6270,71.8149
123.5957,71.8527
123.5822,71.8679
123.5603,71.8926
123.5403,71.9157
123.5238,71.9355
123.5124,71.9500
123.5087,71.9554
123.5011,71.9646
123.4866,71.9798
123.4665,71.9996
123.4425,72.0226
123.4160,72.0473
123.3885,72.0725
123.3615,72.0966
123.3365,72.1183
123.3164,72.1350
123.2970,72.1491
123.2702,72.1663
123.2386,72.1850
123.2052,72.2037
123.1727,72.2207
123.1439,72.2344
123.1419,72.2353
123.1236,72.2423
123.1007,72.2488
123.0716,72.2554
123.0345,72.2622
122.9927,72.2691
122.9245,72.2795
122.8627,72.2883
122.8079,72.2955
122.7608,72.3010
122.7223,72.3046
122.6931,72.3064
122.6739,72.3062
122.6689,72.3054
122.6612,72.3039
122.6440,72.3007
122.6191,72.2962
122.5881,72.2905
122.5527,72.2842
122.5314,72.2803
122.4271,72.2598
122.3238,72.2358
122.2232,72.2090
122.1266,72.1797
122.0357,72.1485
121.9518,72.1158
121.8765,72.0821
121.8242,72.0551
121.8005,72.0426
121.7692,72.0269
121.7328,72.0093
121.6941,71.9911
121.6558,71.9736
121.6500,71.9710
121.5978,71.9472
121.5538,71.9259
121.5153,71.9058
121.4801,71.8855
121.4455,71.8637
121.4161,71.8438
121.4011,71.8342
121.3781,71.8206
121.3491,71.8040
121.3161,71.7856
121.2812,71.7665
121.2679,71.7594
121.2189,71.7326
121.1800,71.7100
121.1508,71.6914
121.1309,71.6764
121.1268,71.6726
121.0988,71.6467
121.0643,71.6162
121.0258,71.5832
120.9856,71.5498
120.9462,71.5181
120.9364,71.5103
120.8956,71.4779
120.8594,71.4482
120.8253,71.4189
120.7906,71.3876
120.7527,71.3522
120.7200,71.3209
120.6928,71.2945
120.6722,71.2739
120.6566,71.2570
120.6444,71.2418
120.6341,71.2263
120.6239,71.2084
120.6123,71.1863
120.6102,71.1823
120.5963,71.1544
120.5831,71.1269
120.5721,71.1031
120.5652,71.0867
120.5523,71.0444
120.5428,70.9928
120.5369,70.9334
120.5350,70.8702
120.6869,70.8702
120.6886,70.9246
120.6942,70.9715
120.7044,71.0145
120.7201,71.0569
120.7363,71.0912
120.7478,71.1136
120.7577,71.1314
120.7675,71.1465
120.7788,71.1610
120.7931,71.1767
120.8120,71.1955
120.8371,71.2194
120.8474,71.2292
120.8852,71.2646
120.9172,71.2941
120.9457,71.3194
120.9728,71.3425
121.0008,71.3653
121.0320,71.3897
121.0515,71.4047
121.0731,71.4215
121.0911,71.4360
121.1036,71.4467
121.1091,71.4524
121.1092,71.4527
121.1133,71.4578
121.1243,71.4678
121.1398,71.4807
121.1436,71.4837
121.1664,71.5022
121.1913,71.5235
121.2097,71.5400
121.2277,71.5546
121.2536,71.5722
121.2880,71.5933
121.3316,71.6183
121.3626,71.6354
121.3981,71.6551
121.4319,71.6742
121.4623,71.6919
121.4873,71.7069
121.5053,71.7183
121.5118,71.7229
121.5338,71.7382
121.5614,71.7549
121.5955,71.7734
121.6372,71.7943
121.6875,71.8181
121.7455,71.8445
121.7794,71.8599
121.8111,71.8745
121.8385,71.8875
121.8599,71.8980
121.8734,71.9051
121.8753,71.9062
121.9233,71.9333
121.9814,71.9607
122.0485,71.9882
122.1235,72.0153
122.2052,72.0416
122.2925,72.0669
122.3842,72.0908
122.4792,72.1128
122.5765,72.1326
122.5816,72.1336
122.6275,72.1417
122.6658,72.1469
122.6998,72.1493
122.7327,72.1491
122.7679,72.1463
122.7984,72.1427
122.8607,72.1343
122.9131,72.1269
122.9572,72.1201
122.9941,72.1137
123.0254,72.1072
123.0524,72.1003
123.0764,72.0927
123.0989,72.0840
123.1211,72.0738
123.1446,72.0619
123.1706,72.0478
123.1713,72.0474
123.1890,72.0359
123.2125,72.0184
123.2401,71.9962
123.2700,71.9710
123.3004,71.9443
123.3296,71.9178
123.3557,71.8929
123.3771,71.8713
123.3918,71.8544
123.3948,71.8504
123.4049,71.8371
123.4207,71.8181
123.4403,71.7955
123.4615,71.7719
123.4656,71.7675
123.4929,71.7368
123.5147,71.7091
123.5340,71.6802
123.5540,71.6458
123.5580,71.6385
123.5914,71.5764
123.6248,71.5129
123.6569,71.4502
123.6869,71.3903
123.7136,71.3354
123.7359,71.2876
123.7414,71.2753
123.7559,71.2434
123.7740,71.2046
123.7940,71.1621
123.8146,71.1191
123.8342,71.0789
123.8356,71.0760
123.8540,71.0382
123.8726,70.9993
123.8901,70.9620
123.9053,70.9290
123.9170,70.9029
123.9188,70.8987
123.9305,70.8719
123.9460,70.8368
123.9645,70.7951
123.9853,70.7486
124.0076,70.6990
124.0305,70.6484
124.0531,70.5983
124.0748,70.5508
124.0946,70.5075
124.1118,70.4703
124.1184,70.4561
124.1416,70.4029
124.1664,70.3392
124.1927,70.2656
124.2202,70.1828
124.2486,70.0913
124.2532,70.0760
124.2597,70.0560
124.2694,70.0283
124.2814,69.9953
124.2946,69.9598
124.3068,69.9281
124.3197,69.8943
124.3316,69.8624
124.3415,69.8344
124.3488,69.8125
124.3528,69.7989
124.3528,69.7988
124.3573,69.7848
124.3661,69.7631
124.3780,69.7362
124.3919,69.7065
124.4012,69.6877
124.4176,69.6541
124.4342,69.6187
124.4493,69.5850
124.4613,69.5564
124.4651,69.5467
124.4745,69.5234
124.4878,69.4928
124.5036,69.4576
124.5207,69.4207
124.5371,69.3863
124.5702,69.3164
124.6008,69.2478
124.6285,69.1819
124.6527,69.1200
124.6729,69.0637
124.6885,69.0142
124.6990,68.9729
124.6995,68.9706
124.7058,68.9344
124.7111,68.8927
124.7155,68.8475
124.7187,68.8012
124.7207,68.7558
124.7214,68.7136
124.7206,68.6769
124.7183,68.6477
124.7160,68.6346
124.7105,68.6105
124.7049,68.5859
124.7020,68.5736
124.6962,68.5537
124.6873,68.5297
124.6790,68.5105
124.6706,68.4920
124.6646,68.4774
124.6622,68.4699
124.6622,68.4697
124.6583,68.4643
124.6477,68.4527
124.6318,68.4365
124.6121,68.4171
124.6045,68.4097
124.5903,68.3961
124.5775,68.3844
124.5652,68.3737
124.5523,68.3636
124.5378,68.3532
124.5205,68.3420
124.4995,68.3293
124.4738,68.3145
124.4422,68.2968
124.4037,68.2757
124.3574,68.2505
124.3074,68.2234
124.2770,68.2067
124.2443,68.1885
124.2137,68.1712
124.1932,68.1593
124.1668,68.1450
124.1343,68.1294
124.1005,68.1147
124.0778,68.1057
124.0485,68.0945
124.0194,68.0831
123.9940,68.0727
123.9781,68.0659
123.9570,68.0565
123.9303,68.0449
123.9026,68.0330
123.8936,68.0292
123.8641,68.0161
123.8309,68.0003
123.8000,67.9848
123.7929,67.9810
123.7713,67.9703
123.7474,67.9601
123.7191,67.9498
123.6847,67.9386
123.6422,67.9260
123.6183,67.9192
123.5726,67.9058
123.5215,67.8898
123.4689,67.8726
123.4192,67.8557
123.3784,67.8410
123.3384,67.8263
123.2962,67.8114
123.2549,67.7972
123.2177,67.7849
123.1878,67.7756
123.1869,67.7753
123.1564,67.7656
123.1272,67.7551
123.1023,67.7450
123.0847,67.7365
123.0828,67.7354
123.0701,67.7282
123.0572,67.7227
123.0417,67.7183
123.0210,67.7144
122.9929,67.7103
122.9730,67.7077
122.9357,67.7037
122.8947,67.7004
122.8548,67.6981
122.8210,67.6972
122.8209,67.6972
122.7879,67.6966
122.7533,67.6951
122.7217,67.6930
122.7021,67.6911
122.6723,67.6888
122.6436,67.6900
122.6141,67.6950
122.5819,67.7044
122.5452,67.7188
122.5021,67.7385
122.4702,67.7543
122.4377,67.7709
122.4135,67.7838
122.3959,67.7942
122.3829,67.8033
122.3730,67.8123
122.3641,67.8226
122.3574,67.8315
122.3388,67.8584
122.3160,67.8944
122.2895,67.9381
122.2601,67.9885
122.2284,68.0442
122.1951,68.1043
122.1607,68.1674
122.1260,68.2324
122.0915,68.2982
122.0580,68.3635
122.0260,68.4272
121.9963,68.4881
121.9959,68.4890
121.9681,68.5450
121.9376,68.6034
121.9036,68.6651
121.8654,68.7315
121.8224,68.8036
121.7739,68.8826
121.7282,68.9555
121.7110,68.9837
121.6896,69.0200
121.6651,69.0627
121.6384,69.1100
121.6107,69.1601
121.5828,69.2111
121.5558,69.2613
121.5524,69.2677
121.5233,69.3221
121.4910,69.3813
121.4571,69.4429
121.4229,69.5042
121.3899,69.5627
121.3594,69.6159
121.3375,69.6535
121.3121,69.6969
121.2870,69.7400
121.2633,69.7812
121.2419,69.8187
121.2236,69.8511
121.2095,69.8766
121.2026,69.8895
121.1855,69.9211
121.1653,69.9568
121.1449,69.9914
121.1332,70.0106
121.1178,70.0350
121.0976,70.0668
121.0736,70.1043
121.0470,70.1457
121.0189,70.1894
120.9903,70.2337
120.9624,70.2769
120.9361,70.3174
120.9127,70.3534
120.8931,70.3833
120.8785,70.4054
120.8785,70.4054
120.8432,70.4609
120.8092,70.5198
120.7775,70.5797
120.7492,70.6384
120.7256,70.6936
120.7077,70.7430
120.7042,70.7541
120.6956,70.7856
120.6903,70.8116
120.6877,70.8373
120.6869,70.8677
120.6869,70.8702
120.5350,70.8702
120.5349,70.8677
120.5349,70.8666
120.5350,70.8336
120.5357,70.8085
120.5375,70.7879
120.5409,70.7684
120.5462,70.7466
120.5540,70.7192
120.5572,70.7085
120.5764,70.6525
120.6026,70.5899
120.6349,70.5222
120.6726,70.4512
120.7147,70.3784
120.7579,70.3097
120.8139,70.2234
120.8653,70.1436
120.9119,70.0708
120.9533,70.0052
120.9894,69.9473
121.0200,69.8974
121.0447,69.8559
121.0635,69.8230
121.0714,69.8084
121.0834,69.7861
121.1002,69.7559
121.1207,69.7197
121.1439,69.6791
121.1688,69.6361
121.1943,69.5924
121.2080,69.5691
121.2349,69.5228
121.2656,69.4691
121.2985,69.4107
121.3322,69.3501
121.3651,69.2900
121.3960,69.2330
121.4148,69.1976
121.4471,69.1375
121.4808,69.0760
121.5148,69.0154
121.5478,68.9579
121.5784,68.9060
121.6054,68.8617
121.6066,68.8598
121.6558,68.7804
121.6995,68.7084
121.7386,68.6421
121.7741,68.5797
121.8069,68.5196
121.8381,68.4599
121.8687,68.3989
121.8746,68.3868
121.9091,68.3172
121.9447,68.2469
121.9811,68.1768
122.0176,68.1078
122.0538,68.0408
122.0891,67.9768
122.1231,67.9167
122.1551,67.8614
122.1848,67.8118
122.2115,67.7689
122.2348,67.7334
122.2541,67.7065
122.2666,67.6914
122.2769,67.6802
122.2930,67.6627
122.3128,67.6411
122.3345,67.6173
122.3429,67.6082
122.3684,67.5809
122.3887,67.5607
122.4058,67.5461
122.4216,67.5352
122.4350,67.5280
122.4590,67.5179
122.4860,67.5088
122.5129,67.5016
122.5368,67.4971
122.5545,67.4960
122.5589,67.4966
122.5712,67.4968
122.5888,67.4938
122.5982,67.4913
122.6259,67.4861
122.6627,67.4836
Z" /> 
<path style="fill:#000000; fill-opacity:1.0000; stroke:none;fill-rule:evenodd;"
d="M 142.5651,73.7417
142.5671,73.7490
142.5578,73.7396
Z" /> 
<path style="fill:#000000; fill-opacity:1.0000; stroke:none;fill-rule:evenodd;"
d="M 141.4262,72.3950
141.4049,72.4163
141.3836,72.3950
141.4049,72.3737
Z" /> 
<path style="fill:#000000; fill-opacity:1.0000; stroke:none;fill-rule:evenodd;"
d="M 141.5540,72.2671
141.5327,72.2884
141.5114,72.2671
141.5327,72.2458
Z" /> 
<path style="fill:#000000; fill-opacity:1.0000; stroke:none;fill-rule:evenodd;"
d="M 141.5540,73.3752
141.5327,73.3965
141.5114,73.3752
141.5327,73.3539
Z" /> 
<path style="fill:#000000; fill-opacity:1.0000; stroke:none;fill-rule:evenodd;"
d="M 141.5966,73.5883
141.5753,73.6096
141.5540,73.5883
141.5753,73.5669
Z" /> 
<path style="fill:#000000; fill-opacity:1.0000; stroke:none;fill-rule:evenodd;"
d="M 141.6393,73.6735
141.6180,73.6948
141.5966,73.6735
141.6180,73.6522
Z" /> 
<path style="fill:#000000; fill-opacity:1.0000; stroke:none;fill-rule:evenodd;"
d="M 142.0654,74.0997
142.0441,74.1210
142.0228,74.0997
142.0441,74.0784
Z" /> 
<path style="fill:#000000; fill-opacity:1.0000; stroke:none;fill-rule:evenodd;"
d="M 142.1507,74.0570
142.1294,74.0784
142.1081,74.0570
142.1294,74.0357
Z" /> 
<path style="fill:#000000; fill-opacity:1.0000; stroke:none;fill-rule:evenodd;"
d="M 142.2785,73.0342
142.2572,73.0555
142.2359,73.0342
142.2572,73.0129
Z" /> 
<path style="fill:#000000; fill-opacity:1.0000; stroke:none;fill-rule:evenodd;"
d="M 143.0883,73.3325
143.0669,73.3539
143.0456,73.3325
143.0669,73.3112
Z" /> 
<path style="fill:#000000; fill-opacity:1.0000; stroke:none;fill-rule:evenodd;"
d="M 143.0883,73.5030
143.0669,73.5243
143.0456,73.5030
143.0669,73.4817
Z" /> 
<path style="fill:#000000; fill-opacity:1.0000; stroke:none;fill-rule:evenodd;"
d="M 143.0883,74.0144
143.0669,74.0357
143.0456,74.0144
143.0669,73.9931
Z" /> 
<path style="fill:#000000; fill-opacity:1.0000; stroke:none;fill-rule:evenodd;"
d="M 143.1309,73.2473
143.1096,73.2686
143.0883,73.2473
143.1096,73.2260
Z" /> 
<path style="fill:#000000; fill-opacity:1.0000; stroke:none;fill-rule:evenodd;"
d="M 143.1735,73.4178
143.1522,73.4391
143.1309,73.4178
143.1522,73.3965
Z" /> 
<path style="fill:#000000; fill-opacity:1.0000; stroke:none;fill-rule:evenodd;"
d="M 143.2587,73.8866
143.2374,73.9079
143.2161,73.8866
143.2374,73.8653
Z" /> 
<path style="fill:#000000; fill-opacity:1.0000; stroke:none;fill-rule:evenodd;"
d="M 143.2587,74.0144
143.2374,74.0357
143.2161,74.0144
143.2374,73.9931
Z" /> 
<path style="fill:#000000; fill-opacity:1.0000; stroke:none;fill-rule:evenodd;"
d="M 143.3440,73.3325
143.3227,73.3539
143.3013,73.3325
143.3227,73.3112
Z" /> 
<path style="fill:#000000; fill-opacity:1.0000; stroke:none;fill-rule:evenodd;"
d="M 143.7275,73.5883
143.7062,73.6096
143.6849,73.5883
143.7062,73.5669
Z" /> 
<path style="fill:#000000; fill-opacity:1.0000; stroke:none;fill-rule:evenodd;"
d="M 134.0844,71.5382
134.0717,71.5575
134.0285,71.5606
133.9830,71.5502
134.0027,71.5348
134.0694,71.5297
Z" /> 
<path style="fill:#000000; fill-opacity:1.0000; stroke:none;fill-rule:evenodd;"
d="M 146.5951,69.4214
146.6042,69.4331
146.6192,69.4714
146.5789,69.4569
146.5403,69.4331
146.5075,69.3988
146.5271,69.3911
Z" /> 
<path style="fill:#000000; fill-opacity:1.0000; stroke:none;fill-rule:evenodd;"
d="M 146.6872,69.2463
146.7472,69.2807
146.7372,69.3030
146.7133,69.3052
146.6555,69.2742
146.6471,69.2631
146.6540,69.2389
Z" /> 
<path style="fill:#000000; fill-opacity:1.0000; stroke:none;fill-rule:evenodd;"
d="M 142.9625,74.0507
143.0067,74.0855
142.9901,74.1352
142.9529,74.1551
142.9199,74.1583
142.9546,74.1294
142.9873,74.0867
142.9642,74.0654
142.9423,74.0487
Z" /> 
<path style="fill:#000000; fill-opacity:1.0000; stroke:none;fill-rule:evenodd;"
d="M 134.1279,71.6048
134.1599,71.6073
134.5008,71.6363
134.0534,71.6391
133.8749,71.6376
133.7538,71.6312
133.7001,71.6208
133.7124,71.6101
133.8052,71.5985
133.9534,71.5966
Z" /> 
<path style="fill:#000000; fill-opacity:1.0000; stroke:none;fill-rule:evenodd;"
d="M 135.3106,71.2776
135.2985,71.2883
135.2253,71.3082
135.1037,71.3324
135.0122,71.3415
134.9665,71.3374
134.9989,71.3198
135.0336,71.3082
135.1617,71.2812
135.2466,71.2749
Z" /> 
<path style="fill:#000000; fill-opacity:1.0000; stroke:none;fill-rule:evenodd;"
d="M 134.9736,71.5749
134.9793,71.5754
135.0197,71.5833
134.9831,71.5893
134.8782,71.5924
134.8418,71.5926
134.7174,71.5907
134.6558,71.5854
134.6672,71.5777
134.6810,71.5758
134.8219,71.5686
Z" /> 
<path style="fill:#000000; fill-opacity:1.0000; stroke:none;fill-rule:evenodd;"
d="M 142.2010,73.0871
142.2668,73.1175
142.2954,73.1097
142.3082,73.1155
142.2975,73.1527
142.2726,73.2115
142.2495,73.2103
142.2053,73.1439
142.1967,73.1301
142.1596,73.0662
142.1709,73.0635
Z" /> 
<path style="fill:#000000; fill-opacity:1.0000; stroke:none;fill-rule:evenodd;"
d="M 134.8346,71.3752
134.7567,71.3980
134.6926,71.4147
134.5244,71.4535
134.3585,71.4853
134.2878,71.4959
134.2108,71.5036
134.2097,71.4970
134.2876,71.4741
134.3517,71.4575
134.5199,71.4187
134.6858,71.3869
134.7565,71.3762
134.8335,71.3685
Z" /> 
<path style="fill:#000000; fill-opacity:1.0000; stroke:none;fill-rule:evenodd;"
d="M 139.7416,71.6499
139.8561,71.7352
139.9142,71.7924
140.0405,71.9504
140.1328,72.1173
140.1814,72.2712
140.1768,72.3900
140.1761,72.3918
140.1373,72.4481
140.0786,72.4438
139.9877,72.3755
139.9327,72.3227
139.8277,72.1930
139.7350,72.0393
139.7164,71.9995
139.6509,71.8156
139.6356,71.6936
139.6669,71.6372
Z" /> 
<path style="fill:#000000; fill-opacity:1.0000; stroke:none;fill-rule:evenodd;"
d="M 146.3854,69.4198
146.3621,69.4722
146.3413,69.5632
146.3833,69.6372
146.4658,69.6824
146.5663,69.6865
146.6626,69.6376
146.6649,69.6355
146.7061,69.6053
146.7030,69.6431
146.7021,69.6461
146.6464,69.7035
146.5470,69.7232
146.4372,69.7047
146.3531,69.6513
146.3100,69.5666
146.3049,69.4737
146.3353,69.4057
146.3730,69.3904
Z" /> 
<path style="fill:#000000; fill-opacity:1.0000; stroke:none;fill-rule:evenodd;"
d="M 141.2034,71.3756
141.2643,71.4223
141.3157,71.4848
141.3354,71.5672
141.3299,71.6994
141.3279,71.7189
141.2866,71.9092
141.2106,72.0789
141.1111,72.2163
140.9995,72.3100
140.8871,72.3483
140.7851,72.3196
140.7616,72.2997
140.7200,72.2305
140.7052,72.1201
140.7099,71.9904
140.7618,71.7418
140.8760,71.5470
141.0495,71.4112
141.0499,71.4110
141.1427,71.3701
Z" /> 
<path style="fill:#000000; fill-opacity:1.0000; stroke:none;fill-rule:evenodd;"
d="M 142.2147,72.3720
142.3680,72.4359
142.5567,72.5245
142.7428,72.6265
142.9359,72.7505
143.1217,72.8854
143.2862,73.0197
143.4155,73.1423
143.4954,73.2418
143.5144,73.2937
143.5010,73.3444
143.4557,73.3355
143.3714,73.2635
143.3013,73.1911
143.0809,72.9812
142.8238,72.7892
142.5099,72.6006
142.3870,72.5348
142.2121,72.4389
142.1120,72.3744
142.0822,72.3416
142.1179,72.3407
Z" /> 
<path style="fill:#000000; fill-opacity:1.0000; stroke:none;fill-rule:evenodd;"
d="M 143.6138,74.0757
143.6123,74.1068
143.5719,74.1441
143.5526,74.1395
143.5167,74.1473
143.5144,74.1611
143.4870,74.2027
143.4331,74.1918
143.4097,74.1665
143.4105,74.1608
143.4396,74.1608
143.4455,74.1636
143.4844,74.1336
143.4931,74.1210
143.5040,74.0811
143.4982,74.0784
143.4593,74.1084
143.4505,74.1210
143.4396,74.1608
143.4105,74.1608
143.4171,74.1149
143.4854,74.0720
143.5628,74.0558
Z" /> 
<path style="fill:#000000; fill-opacity:1.0000; stroke:none;fill-rule:evenodd;"
d="M 145.0894,73.0342
145.0527,73.1840
144.9491,73.3261
144.7967,73.4465
144.6135,73.5311
144.4178,73.5658
144.4058,73.5660
144.2973,73.5735
144.2306,73.5906
144.2263,73.5938
144.2361,73.6387
144.2870,73.7316
144.3684,73.8528
144.3737,73.8601
144.6408,74.2431
144.9006,74.6450
145.1419,75.0469
145.3536,75.4302
145.5246,75.7759
145.5801,75.9019
145.6489,76.0809
145.7115,76.2723
145.7633,76.4574
145.7993,76.6175
145.8148,76.7339
145.8066,76.7866
145.7831,76.7588
145.7361,76.6673
145.6733,76.5278
145.6250,76.4124
145.4561,76.0264
145.2820,75.6925
145.0848,75.3783
144.9272,75.1580
144.7537,74.9401
144.5436,74.6985
144.3202,74.4585
144.1066,74.2451
143.9745,74.1244
143.8593,74.0246
143.7513,74.1529
143.5648,74.3162
143.3520,74.4003
143.1212,74.4036
142.8811,74.3247
142.8580,74.3128
142.7429,74.2532
142.6625,74.2145
142.6402,74.2062
142.6032,74.2339
142.5260,74.3056
142.4540,74.3767
142.3223,74.4907
142.2121,74.5400
142.1647,74.5439
142.0441,74.5407
142.1777,74.4906
142.2934,74.4262
142.4137,74.3286
142.4399,74.3021
142.5286,74.2176
142.6001,74.1685
142.6178,74.1636
142.6458,74.1372
142.6381,74.1167
142.6356,74.0913
142.6948,74.1157
142.6972,74.1170
142.7781,74.1718
142.8118,74.2071
142.8650,74.2293
142.8847,74.2216
142.9107,74.2196
142.9005,74.2422
142.8968,74.2861
142.9128,74.2914
142.9730,74.2603
142.9817,74.2488
143.0434,74.2104
143.0588,74.2096
143.0842,74.2199
143.0563,74.2344
143.0022,74.2735
143.0229,74.3083
143.1079,74.3304
143.1777,74.3341
143.3587,74.3098
143.5343,74.2464
143.6694,74.1575
143.6930,74.1326
143.7289,74.0533
143.7591,73.9253
143.7695,73.8492
143.7917,73.7198
143.8373,73.6308
143.9214,73.5725
144.0587,73.5353
144.2641,73.5098
144.3013,73.5064
144.5586,73.4686
144.7485,73.4027
144.8862,73.3004
144.9872,73.1537
144.9936,73.1408
145.0508,73.0376
145.0830,73.0107
Z" /> 
<path style="fill:#000000; fill-opacity:1.0000; stroke:none;fill-rule:evenodd;"
d="M 141.6586,66.2755
141.7125,66.3813
141.7743,66.5381
141.8378,66.7302
141.8970,66.9415
141.9149,67.0143
142.0069,67.4794
142.0782,68.0031
142.1266,68.5607
142.1492,69.1276
142.1507,69.3045
142.1519,69.5838
142.1584,69.7865
142.1747,69.9212
142.2050,69.9965
142.2539,70.0210
142.3256,70.0033
142.4245,69.9520
142.4676,69.9270
142.7311,69.8142
142.9922,69.7846
143.2417,69.8373
143.3613,69.8764
143.4716,69.8914
143.6062,69.8842
143.7424,69.8655
143.8942,69.8432
144.1067,69.8132
144.3560,69.7789
144.6183,69.7435
144.7290,69.7287
145.0964,69.6799
145.3881,69.6401
145.6129,69.6074
145.7795,69.5797
145.8969,69.5553
145.9737,69.5321
146.0189,69.5081
146.0412,69.4814
146.0494,69.4501
146.0507,69.4360
146.0988,69.3112
146.2115,69.2238
146.3723,69.1848
146.4278,69.1842
146.5334,69.1889
146.5574,69.1938
146.5032,69.2016
146.4550,69.2068
146.2909,69.2430
146.1680,69.3061
146.0984,69.3848
146.0943,69.4679
146.1236,69.5107
146.1143,69.5446
146.0209,69.5797
145.9375,69.5987
145.8475,69.6143
145.6920,69.6387
145.4844,69.6701
145.2384,69.7064
144.9674,69.7457
144.6852,69.7862
144.4051,69.8259
144.1407,69.8628
143.9056,69.8951
143.7134,69.9207
143.5776,69.9378
143.5117,69.9444
143.5102,69.9445
143.4722,69.9712
143.4717,69.9764
143.5104,69.9908
143.6117,69.9971
143.7450,69.9943
143.9015,69.9934
144.0328,70.0056
144.1004,70.0240
144.1604,70.0370
144.2712,70.0354
144.4415,70.0184
144.6797,69.9851
144.9245,69.9464
145.1867,69.9041
145.4388,69.8644
145.6608,69.8304
145.8326,69.8052
145.9123,69.7945
146.0807,69.7614
146.1835,69.7143
146.2020,69.6944
146.2306,69.6569
146.2271,69.6929
146.2195,69.7216
146.2154,69.7934
146.2647,69.8441
146.3347,69.8775
146.5116,69.9189
146.6721,69.8984
146.7987,69.8243
146.8736,69.7043
146.8862,69.6289
146.8942,69.5579
146.9081,69.5643
146.9112,69.5749
146.9111,69.7291
146.8373,69.8607
146.7549,69.9224
146.6336,69.9727
146.5244,69.9799
146.3958,69.9422
146.2920,69.8951
146.1021,69.8032
145.2510,69.9409
144.9889,69.9840
144.7537,70.0238
144.5589,70.0579
144.4184,70.0841
144.3458,70.0997
144.3409,70.1013
144.3122,70.1313
144.3346,70.1932
144.3769,70.2569
144.4399,70.3790
144.4759,70.5414
144.4879,70.6773
144.4986,70.8331
144.5205,70.9257
144.5715,70.9767
144.6692,71.0080
144.7763,71.0301
144.9374,71.1025
145.0691,71.2363
145.1510,71.4083
145.1639,71.4714
145.1698,71.6789
145.1178,71.8492
145.0117,72.0000
144.8937,72.1437
144.8323,72.2503
144.8234,72.3426
144.8630,72.4433
144.9182,72.5322
144.9910,72.6538
145.0382,72.7550
145.0483,72.7965
145.0297,72.7995
144.9817,72.7405
144.9231,72.6462
144.8181,72.4959
144.6797,72.3390
144.5823,72.2478
144.4050,72.1138
144.2284,72.0159
144.0332,71.9481
143.8001,71.9046
143.5097,71.8794
143.3653,71.8727
143.1279,71.8609
142.9422,71.8459
142.8133,71.8293
142.7462,71.8128
142.7462,71.7981
142.8184,71.7866
142.9680,71.7801
143.0669,71.7792
143.4993,71.7948
143.8636,71.8447
144.1712,71.9318
144.4333,72.0589
144.5856,72.1651
144.6790,72.2313
144.7387,72.2588
144.7503,72.2520
144.7764,72.1987
144.8440,72.1047
144.9190,72.0135
145.0630,71.8088
145.1248,71.6184
145.1049,71.4358
145.0039,71.2547
144.9803,71.2255
144.8694,71.1330
144.7108,71.0682
144.4958,71.0295
144.2154,71.0153
143.8767,71.0232
143.5499,71.0474
143.2720,71.0892
143.0072,71.1540
142.9817,71.1615
142.7587,71.2216
142.5150,71.2778
142.2967,71.3197
142.2588,71.3256
141.9194,71.3760
141.9310,71.5659
141.9288,71.7097
141.9090,71.8354
141.9002,71.8623
141.8766,71.9098
141.8631,71.8969
141.8567,71.8139
141.8551,71.7237
141.8478,71.5921
141.8318,71.5031
141.8155,71.4787
141.7800,71.5149
141.7317,71.6067
141.7072,71.6658
141.5866,71.9188
141.4234,72.1735
141.2356,72.4065
141.0413,72.5945
140.9300,72.6753
140.7707,72.7382
140.5793,72.7634
140.4476,72.7763
140.3913,72.8006
140.4123,72.8257
140.5126,72.8412
140.5643,72.8424
140.7053,72.8283
140.8573,72.7912
141.0007,72.7393
141.1159,72.6807
141.1835,72.6236
141.1891,72.5824
141.1988,72.5618
141.2270,72.5685
141.2885,72.5520
141.3942,72.4817
141.5310,72.3667
141.5495,72.3497
141.6629,72.2502
141.7442,72.1895
141.7814,72.1761
141.7808,72.1873
141.7262,72.2853
141.6945,72.3238
141.6604,72.3923
141.6668,72.4263
141.6680,72.4522
141.6507,72.4446
141.5903,72.4490
141.5573,72.4762
141.5400,72.5242
141.5815,72.5760
141.6542,72.6255
141.7628,72.7154
141.8977,72.8601
142.0440,73.0399
142.1869,73.2348
142.3114,73.4251
142.4028,73.5909
142.4332,73.6635
142.4802,73.7212
142.5153,73.7274
142.5543,73.7386
142.5342,73.7587
142.5526,73.7771
142.5390,73.7915
142.5281,73.7901
142.5127,73.8110
142.5324,73.8619
142.5776,73.9589
142.5801,73.9961
142.5489,73.9814
142.4927,73.9229
142.4204,73.8286
142.3408,73.7067
142.3159,73.6643
142.2366,73.5363
142.1831,73.4783
142.1472,73.4821
142.1423,73.4882
142.1194,73.5072
142.1299,73.4489
142.1311,73.4444
142.1422,73.3749
142.1128,73.3724
142.1060,73.3764
142.0724,73.3860
142.0849,73.3569
142.0820,73.2880
142.0284,73.1783
141.9364,73.0444
141.8185,72.9029
141.6869,72.7703
141.5826,72.6835
141.4547,72.5885
141.3019,72.6803
141.2044,72.7391
141.1439,72.7761
141.1364,72.7809
141.1499,72.8178
141.1991,72.9001
141.2253,72.9397
141.2786,73.0219
141.3239,73.1038
141.3671,73.2009
141.4143,73.3286
141.4715,73.5023
141.5448,73.7373
141.5734,73.8307
141.6490,74.0653
141.7125,74.2305
141.7700,74.3404
141.8280,74.4089
141.8375,74.4167
141.9031,74.4785
141.8949,74.5036
141.8825,74.5045
141.8099,74.4734
141.7373,74.4045
141.6326,74.3234
141.4891,74.2730
141.3459,74.2221
141.2056,74.1157
141.1440,74.0534
141.0409,73.9529
140.9531,73.8846
140.9087,73.8653
140.8425,73.8397
140.7424,73.7750
140.6891,73.7335
140.5840,73.6547
140.4966,73.6215
140.3857,73.6225
140.3172,73.6310
140.1964,73.6527
140.1201,73.6761
140.1060,73.6881
140.1393,73.7236
140.2265,73.7927
140.3506,73.8819
140.3842,73.9050
140.5588,74.0346
140.7409,74.1865
140.8783,74.3151
141.0088,74.4563
141.1217,74.5931
141.2057,74.7103
141.2498,74.7927
141.2504,74.8220
141.2144,74.8022
141.1326,74.7358
141.0201,74.6355
140.9768,74.5952
140.7256,74.3937
140.4122,74.1983
140.0595,74.0219
139.7706,73.9055
139.5970,73.8341
139.5006,73.7689
139.4744,73.7024
139.5115,73.6270
139.5143,73.6236
139.5794,73.5728
139.6974,73.5025
139.8439,73.4247
139.9947,73.3518
140.1254,73.2960
140.2118,73.2694
140.2210,73.2686
140.2622,73.2323
140.2688,73.1983
140.3607,73.1983
140.3964,73.3301
140.4900,73.4752
140.6215,73.6123
140.7708,73.7203
140.9099,73.7766
140.9143,73.7409
140.9071,73.6464
140.8991,73.5811
140.8625,73.4094
140.8045,73.2396
140.7348,73.0919
140.6627,72.9861
140.6186,72.9561
140.7970,72.9561
140.8031,72.9867
140.8882,73.3026
140.9577,73.5468
141.0171,73.7303
141.0717,73.8640
141.1268,73.9589
141.1877,74.0260
141.2598,74.0763
141.3483,74.1206
141.3549,74.1236
141.4880,74.1809
141.5616,74.2016
141.5922,74.1882
141.5966,74.1609
141.5789,74.0506
141.5312,73.8857
141.4621,73.6874
141.3801,73.4774
141.2935,73.2769
141.2109,73.1074
141.1407,72.9904
141.1281,72.9742
141.0414,72.8895
140.9597,72.8647
140.9002,72.8718
140.8154,72.9018
140.7970,72.9561
140.6186,72.9561
140.5980,72.9421
140.5936,72.9419
140.4895,72.9791
140.4027,73.0700
140.3613,73.1840
140.3607,73.1983
140.2688,73.1983
140.2755,73.1636
140.3098,73.0589
140.3607,73.0129
140.4288,72.9577
140.4433,72.9072
140.3975,72.8851
140.3468,72.8582
140.2497,72.7859
140.1224,72.6806
140.0378,72.6065
139.8028,72.3682
139.6256,72.1180
139.4916,71.8311
139.3959,71.5214
139.3189,71.2226
139.1260,71.2455
139.0043,71.2583
138.8103,71.2765
138.5568,71.2993
138.2566,71.3255
137.9223,71.3540
137.5667,71.3839
137.2026,71.4141
136.8426,71.4434
136.4995,71.4709
136.1861,71.4955
135.9150,71.5162
135.6991,71.5319
135.5509,71.5415
135.5237,71.5430
135.4646,71.5451
135.4508,71.5434
135.4856,71.5375
135.5727,71.5270
135.7155,71.5117
135.9176,71.4911
136.1825,71.4649
136.5137,71.4328
136.9148,71.3943
137.3892,71.3492
137.9406,71.2971
138.5723,71.2376
138.7517,71.2208
139.2949,71.1698
139.2679,70.8661
139.2525,70.7145
139.2373,70.5998
139.2291,70.5618
139.3075,70.5618
139.3479,71.0244
139.4261,71.4437
139.5390,71.8138
139.6834,72.1286
139.8562,72.3819
140.0541,72.5677
140.2740,72.6800
140.4276,72.7108
140.4911,72.7015
140.6067,72.6734
140.7038,72.6461
140.9325,72.5374
141.1577,72.3530
141.3720,72.1026
141.5682,71.7955
141.7391,71.4414
141.8073,71.2560
141.8950,71.2560
141.9337,71.2798
142.0408,71.2818
142.2028,71.2639
142.4063,71.2279
142.6376,71.1756
142.7899,71.1355
143.0396,71.0744
143.3160,71.0203
143.5973,70.9760
143.8622,70.9446
144.0889,70.9291
144.2559,70.9323
144.2623,70.9330
144.3646,70.9340
144.4223,70.8960
144.4474,70.8029
144.4519,70.6761
144.4149,70.4698
144.3157,70.2767
144.1850,70.1412
144.0917,70.0901
143.9717,70.0638
143.7973,70.0566
143.7802,70.0567
143.5159,70.0836
143.2410,70.1642
142.9421,70.3037
142.6206,70.4974
142.4553,70.6015
142.2970,70.6941
142.1731,70.7594
142.1455,70.7718
142.0420,70.8281
141.9818,70.9075
141.9431,71.0270
141.9142,71.1494
141.8970,71.2369
141.8950,71.2560
141.8073,71.2560
141.8463,71.1503
141.9259,70.8859
141.9681,70.7128
142.0228,70.7128
142.0547,70.7280
142.1413,70.6984
142.2693,70.6303
142.4252,70.5301
142.4535,70.5103
142.5803,70.4300
142.7557,70.3311
142.9508,70.2296
143.0455,70.1834
143.4411,69.9954
143.2966,69.9193
143.1138,69.8613
142.8976,69.8484
142.6866,69.8806
142.5757,69.9230
142.3492,70.0572
142.1952,70.1954
142.1015,70.3503
142.0688,70.4589
142.0424,70.5890
142.0258,70.6849
142.0228,70.7128
141.9681,70.7128
141.9865,70.6370
142.0303,70.3854
142.0595,70.1128
142.0610,70.0865
142.1223,70.0865
142.1281,70.1119
142.1507,70.1149
142.1857,70.0993
142.1791,70.0865
142.1285,70.0814
142.1223,70.0865
142.0610,70.0865
142.0765,69.8009
142.0834,69.4314
142.0838,69.2200
142.0679,68.5566
142.0235,67.9523
141.9515,67.4132
141.8526,66.9454
141.7794,66.6976
141.7230,66.5344
141.6773,66.4216
141.6395,66.3638
141.6069,66.3654
141.5765,66.4311
141.5456,66.5653
141.5114,66.7728
141.4712,67.0579
141.4469,67.2383
141.3858,67.6383
141.3100,68.0414
141.2228,68.4357
141.1275,68.8096
141.0275,69.1512
140.9260,69.4488
140.8264,69.6906
140.7320,69.8648
140.6921,69.9179
140.5774,70.0243
140.4823,70.0497
140.3983,69.9938
140.3379,69.8988
140.2962,69.7598
140.2733,69.5499
140.2684,69.2809
140.2802,68.9648
140.3078,68.6135
140.3503,68.2389
140.4065,67.8530
140.4754,67.4676
140.5560,67.0946
140.5900,66.9568
140.6394,66.7549
140.6763,66.5863
140.6978,66.4662
140.7009,66.4097
140.6985,66.4072
140.6397,66.4421
140.5498,66.5372
140.4393,66.6786
140.3187,66.8522
140.1984,67.0440
140.1214,67.1791
139.7964,67.8497
139.5545,68.5197
139.3939,69.1964
139.3127,69.8874
139.3075,70.5618
139.2291,70.5618
139.2254,70.5450
139.2247,70.5439
139.1808,70.5479
139.0620,70.5671
138.8769,70.5997
138.6340,70.6442
138.3421,70.6990
138.0097,70.7625
137.6456,70.8331
137.4087,70.8796
137.0240,70.9551
136.6616,71.0258
136.3307,71.0901
136.0407,71.1459
135.8009,71.1917
135.6208,71.2255
135.5097,71.2455
135.4810,71.2501
135.3966,71.2593
135.3727,71.2575
135.4121,71.2440
135.5177,71.2182
135.6923,71.1795
135.9388,71.1273
136.2599,71.0609
136.6586,70.9797
137.1376,70.8831
137.2284,70.8649
137.6111,70.7879
137.9710,70.7153
138.2988,70.6489
138.5853,70.5907
138.8210,70.5424
138.9969,70.5061
139.1035,70.4835
139.1294,70.4777
139.1768,70.4629
139.2092,70.4368
139.2305,70.3841
139.2446,70.2896
139.2554,70.1383
139.2650,69.9520
139.2819,69.7079
139.3077,69.4512
139.3383,69.2188
139.3586,69.0995
139.4431,68.7442
139.5603,68.3640
139.7032,67.9752
139.8644,67.5942
140.0368,67.2373
140.2131,66.9206
140.3862,66.6606
140.4972,66.5258
140.6198,66.4027
140.7022,66.3456
140.7463,66.3572
140.7541,66.4403
140.7273,66.5976
140.6785,66.7929
140.5284,67.4342
140.4164,68.0914
140.3480,68.7298
140.3335,68.9856
140.3248,69.3043
140.3282,69.5484
140.3449,69.7277
140.3763,69.8522
140.4236,69.9316
140.4609,69.9623
140.5446,69.9696
140.6360,69.8983
140.7329,69.7546
140.8332,69.5446
140.9349,69.2743
141.0359,68.9499
141.1343,68.5775
141.2279,68.1633
141.3147,67.7132
141.3926,67.2336
141.4040,67.1549
141.4531,66.8285
141.4960,66.5805
141.5342,66.4045
141.5693,66.2940
141.6028,66.2424
141.6186,66.2367
Z" /> 
</g>
<g style="fill:none; 
stroke:#000000; stroke-width:0.1200; stroke-opacity:1; 
stroke-linecap:round; stroke-linejoin:round;">
<path d="M100.1713 121.6025
L114.1412 121.6025
" />
<path d="M100.1713 135.5725
L100.1713 121.6025
" />
<path d="M114.1412 121.6025
L114.1412 135.5725
" />
<path d="M114.1412 135.5725
L100.1713 135.5725
" />
<path d="M156.5062 72.4000
L157.1062 72.4000
" />
<path d="M156.8063 72.7000
L156.5062 72.4000
" />
<path d="M157.1062 72.4000
L156.8063 72.7000
" />
<path d="M158.2062 70.6000
L158.2062 82.4000
" />
<path d="M162.3063 70.6000
L158.2062 70.6000
" />
<path d="M162.3063 82.4000
L158.2062 82.4000
" />
<path d="M163.8063 76.5000
L164.8063 76.5000
" />
<path d="M164.3063 76.0000
L164.3063 77.0000
" />
<path d="M166.3063 70.6000
L170.4062 70.6000
" />
<path d="M170.4062 70.6000
L170.4062 73.0000
" />
<path d="M170.4062 75.2000
L170.4062 77.8000
" />
<path d="M170.4062 80.0000
L170.4062 82.4000
" />
<path d="M170.4062 82.4000
L166.3063 82.4000
" />
<circle cx="164.3063" cy="76.5000" r="3.0000" /> 
<path d="M157.3212 121.6025
L171.2912 121.6025
" />
<path d="M157.3212 135.5725
L157.3212 121.6025
" />
<path d="M171.2912 121.6025
L171.2912 135.5725
" />
<path d="M171.2912 135.5725
L157.3212 135.5725
" />
</g>
<g style="fill:none; 
stroke:#000000; stroke-width:0.1270; stroke-opacity:1; 
stroke-linecap:round; stroke-linejoin:round;">
<path d="M74.0490 106.3850
L74.0490 98.3897
" />
<path d="M74.5490 97.8897
L75.4590 97.8897
" />
</g>
<g style="fill:none; 
stroke:#000000; stroke-width:0.1000; stroke-opacity:1; 
stroke-linecap:round; stroke-linejoin:round;">
<path d="M75.4590 95.4087
L75.4590 109.3787
" />
</g>
<g style="fill:none; 
stroke:#000000; stroke-width:0.1270; stroke-opacity:1; 
stroke-linecap:round; stroke-linejoin:round;">
<path d="M75.4590 95.4087
L75.4590 109.3787
" />
<path d="M75.4590 106.8888
L74.5487 106.8850
" />
<path d="M94.5090 93.5037
L77.3640 93.5037
" />
<path d="M94.5090 111.2837
L77.3640 111.2837
" />
<path d="M96.4140 109.3787
L96.4140 95.4087
" />
<path d="M74.5490 97.8897 A0.5000 0.5000 0.0 0 0 74.0490 98.3897" />
<path d="M74.0490 106.3850 A0.5000 0.5000 0.0 0 0 74.5487 106.8850" />
<path d="M77.3640 93.5037 A1.9050 1.9050 0.0 0 0 75.4590 95.4087" />
<path d="M75.4590 109.3787 A1.9050 1.9050 0.0 0 0 77.3640 111.2837" />
<path d="M96.4140 95.4087 A1.9050 1.9050 0.0 0 0 94.5090 93.5037" />
<path d="M94.5090 111.2837 A1.9050 1.9050 0.0 0 0 96.4140 109.3787" />
</g>
<g style="fill:#000000; fill-opacity:1.0000; stroke:none;">
<circle cx="75.7000" cy="111.3438" r="0.5040" /> 
<circle cx="76.5800" cy="110.2007" r="0.5040" /> 
</g>
<g style="fill:none; 
stroke:#000000; stroke-width:0.1200; stroke-opacity:1; 
stroke-linecap:round; stroke-linejoin:round;">
<path d="M138.2712 121.6025
L152.2412 121.6025
" />
<path d="M138.2712 135.5725
L138.2712 121.6025
" />
<path d="M152.2412 121.6025
L152.2412 135.5725
" />
<path d="M152.2412 135.5725
L138.2712 135.5725
" />
<path d="M88.2650 70.5150
L102.2350 70.5150
" />
<path d="M88.2650 84.4850
L88.2650 70.5150
" />
<path d="M102.2350 70.5150
L102.2350 84.4850
" />
<path d="M102.2350 84.4850
L88.2650 84.4850
" />
<path d="M78.1250 80.5500
L78.1250 74.9500
" />
<path d="M78.1250 80.5500
L82.1250 80.5500
" />
<path d="M81.5250 74.9500
L78.1250 74.9500
" />
<path d="M81.5250 74.9500
L82.1250 75.5500
" />
<path d="M82.1250 80.5500
L82.1250 75.5500
" />
<path d="M119.2212 121.6025
L133.1912 121.6025
" />
<path d="M119.2212 135.5725
L119.2212 121.6025
" />
<path d="M133.1912 121.6025
L133.1912 135.5725
" />
<path d="M133.1912 135.5725
L119.2212 135.5725
" />
<path d="M81.1213 121.5550
L95.0913 121.5550
" />
<path d="M81.1213 135.5250
L81.1213 121.5550
" />
<path d="M95.0913 121.5550
L95.0913 135.5250
" />
<path d="M95.0913 135.5250
L81.1213 135.5250
" />
</g> 
</svg>
